<svg width="30" height="31" viewBox="0 0 30 31" fill="none" xmlns="http://www.w3.org/2000/svg">
<path d="M3.74997 15.5C3.74997 14.3397 4.21091 13.2269 5.03138 12.4064C5.85185 11.5859 6.96465 11.125 8.12497 11.125C9.62997 11.125 10.65 11.6675 11.5 12.5163C12.4075 13.425 13.1062 14.6663 13.9075 16.1075L13.95 16.1825C14.7 17.535 15.5537 19.0713 16.7337 20.2513C17.9937 21.5113 19.6287 22.375 21.875 22.375C23.0265 22.375 24.1595 22.0858 25.1702 21.5339C26.1808 20.982 27.0366 20.1852 27.6591 19.2164C28.2815 18.2476 28.6507 17.1381 28.7327 15.9895C28.8147 14.8409 28.6068 13.6901 28.1283 12.6428C27.6497 11.5954 26.9158 10.6851 25.9938 9.99524C25.0718 9.30541 23.9913 8.8582 22.8515 8.69468C21.7116 8.53115 20.549 8.65654 19.4702 9.05934C18.3915 9.46214 17.4312 10.1294 16.6775 11C17.1797 11.7522 17.6477 12.5268 18.08 13.3213C18.4626 12.655 19.014 12.1012 19.6786 11.7156C20.3432 11.3301 21.0977 11.1264 21.866 11.125C22.6344 11.1236 23.3895 11.3246 24.0555 11.7078C24.7216 12.0909 25.2749 12.6427 25.6599 13.3077C26.045 13.9726 26.2481 14.7272 26.2489 15.4955C26.2497 16.2639 26.0481 17.0189 25.6644 17.6846C25.2807 18.3503 24.7285 18.9032 24.0633 19.2878C23.3981 19.6723 22.6433 19.8748 21.875 19.875C20.3712 19.875 19.35 19.3325 18.5 18.4838C17.5925 17.575 16.8937 16.3338 16.0925 14.8925L16.05 14.8175C15.3 13.465 14.4462 11.9288 13.2662 10.7488C12.0062 9.48875 10.3712 8.625 8.12497 8.625C6.97348 8.62498 5.84041 8.91418 4.82979 9.46607C3.81916 10.018 2.96334 10.8148 2.34088 11.7836C1.71841 12.7524 1.34925 13.8619 1.26727 15.0105C1.18528 16.1591 1.39311 17.3099 1.87166 18.3572C2.35022 19.4046 3.08418 20.3149 4.00617 21.0048C4.92817 21.6946 6.00867 22.1418 7.14849 22.3053C8.28832 22.4688 9.45097 22.3435 10.5297 21.9407C11.6085 21.5379 12.5688 20.8706 13.3225 20C12.8202 19.2478 12.3522 18.4732 11.92 17.6788C11.4402 18.5152 10.6975 19.1697 9.8073 19.5405C8.91713 19.9113 7.9294 19.9777 6.99766 19.7292C6.06592 19.4807 5.24237 18.9314 4.65505 18.1666C4.06773 17.4017 3.74955 16.4643 3.74997 15.5Z" fill="#EFEFEF"/>
</svg>
