<svg width="30" height="30" viewBox="0 0 30 30" fill="none" xmlns="http://www.w3.org/2000/svg">
<path d="M27.2625 12.8126C27.1875 12.7626 26.5625 12.2751 25.2125 12.2751C24.8625 12.2751 24.5125 12.3126 24.1625 12.3751C23.9 10.6251 22.4375 9.7376 22.375 9.7001L22.0125 9.4876L21.7875 9.8251C21.4875 10.2751 21.25 10.7876 21.15 11.3126C20.9 12.3126 21.05 13.2626 21.5625 14.0751C20.95 14.4251 19.95 14.5126 19.7375 14.5126H3.275C2.85 14.5126 2.5 14.8626 2.5 15.3001C2.5 16.7376 2.725 18.1751 3.225 19.5251C3.7875 21.0126 4.6375 22.1126 5.725 22.7876C6.95 23.5376 8.9625 23.9626 11.25 23.9626C12.2375 23.9626 13.2625 23.8751 14.275 23.6876C15.675 23.4376 17.025 22.9501 18.2625 22.2376C19.2874 21.6515 20.2047 20.8948 20.975 20.0001C22.2875 18.5376 23.0625 16.8751 23.625 15.4376H23.8625C25.2875 15.4376 26.175 14.8626 26.6625 14.3751C26.9875 14.0751 27.225 13.7126 27.4 13.2876L27.5 12.9876L27.2625 12.8126ZM4.8125 14.0501H7.0125C7.1125 14.0501 7.2125 13.9626 7.2125 13.8501V11.8751C7.2125 11.7751 7.125 11.6751 7.0125 11.6751H4.8125C4.7 11.6751 4.6125 11.7626 4.6125 11.8751V13.8501C4.625 13.9626 4.7 14.0501 4.8125 14.0501ZM7.85 14.0501H10.05C10.15 14.0501 10.25 13.9626 10.25 13.8501V11.8751C10.25 11.7751 10.1625 11.6751 10.05 11.6751H7.85C7.7375 11.6751 7.65 11.7626 7.65 11.8751V13.8501C7.6625 13.9626 7.7375 14.0501 7.85 14.0501ZM10.9375 14.0501H13.125C13.25 14.0501 13.3375 13.9626 13.3375 13.8501V11.8751C13.3375 11.7751 13.2625 11.6751 13.125 11.6751H10.9375C10.8375 11.6751 10.75 11.7626 10.75 11.8751V13.8501C10.75 13.9626 10.825 14.0501 10.9375 14.0501ZM13.9875 14.0501H16.2C16.3 14.0501 16.3875 13.9626 16.3875 13.8501V11.8751C16.3875 11.7751 16.3125 11.6751 16.2 11.6751H13.9875C13.8875 11.6751 13.8 11.7626 13.8 11.8751V13.8501C13.8 13.9626 13.8875 14.0501 13.9875 14.0501ZM7.85 11.2501H10.05C10.15 11.2501 10.25 11.1376 10.25 11.0251V9.0626C10.25 8.9501 10.1625 8.8626 10.05 8.8626H7.85C7.7375 8.8626 7.65 8.9376 7.65 9.0626V11.0251C7.6625 11.1376 7.7375 11.2501 7.85 11.2501ZM10.9375 11.2501H13.125C13.25 11.2501 13.3375 11.1376 13.3375 11.0251V9.0626C13.3375 8.9501 13.2625 8.8626 13.125 8.8626H10.9375C10.8375 8.8626 10.75 8.9376 10.75 9.0626V11.0251C10.75 11.1376 10.825 11.2501 10.9375 11.2501ZM13.9875 11.2501H16.2C16.3 11.2501 16.3875 11.1376 16.3875 11.0251V9.0626C16.3875 8.9501 16.3 8.8626 16.2 8.8626H13.9875C13.8875 8.8626 13.8 8.9376 13.8 9.0626V11.0251C13.8 11.1376 13.8875 11.2501 13.9875 11.2501ZM13.9875 8.4001H16.2C16.3 8.4001 16.3875 8.3126 16.3875 8.2001V6.2501C16.3875 6.1251 16.3 6.0376 16.2 6.0376H13.9875C13.8875 6.0376 13.8 6.1126 13.8 6.2501V8.2001C13.8 8.3001 13.8875 8.4001 13.9875 8.4001ZM17.0625 14.0501H19.2625C19.375 14.0501 19.4625 13.9626 19.4625 13.8501V11.8751C19.4625 11.7751 19.375 11.6751 19.2625 11.6751H17.0625C16.9625 11.6751 16.875 11.7626 16.875 11.8751V13.8501C16.875 13.9626 16.9625 14.0501 17.0625 14.0501Z" fill="#EFEFEF"/>
</svg>
