<svg width="32" height="32" viewBox="0 0 32 32" fill="none" xmlns="http://www.w3.org/2000/svg">
<path d="M9.4 0.928711H22.35C27.2833 0.928711 31.2917 4.93704 31.2917 9.87038V22.8204C31.2917 25.1919 30.3496 27.4662 28.6727 29.1431C26.9958 30.82 24.7215 31.762 22.35 31.762H9.4C4.46666 31.762 0.458328 27.7537 0.458328 22.8204V9.87038C0.458328 7.4989 1.40039 5.22455 3.07728 3.54766C4.75417 1.87078 7.02852 0.928711 9.4 0.928711ZM9.09166 4.01204C7.61971 4.01204 6.20805 4.59678 5.16722 5.6376C4.12639 6.67843 3.54166 8.09009 3.54166 9.56204V23.1287C3.54166 26.1966 6.02375 28.6787 9.09166 28.6787H22.6583C24.1303 28.6787 25.5419 28.094 26.5828 27.0532C27.6236 26.0123 28.2083 24.6007 28.2083 23.1287V9.56204C28.2083 6.49413 25.7262 4.01204 22.6583 4.01204H9.09166ZM23.9687 6.32454C24.4798 6.32454 24.97 6.52758 25.3314 6.88897C25.6928 7.25037 25.8958 7.74053 25.8958 8.25163C25.8958 8.76272 25.6928 9.25288 25.3314 9.61428C24.97 9.97568 24.4798 10.1787 23.9687 10.1787C23.4577 10.1787 22.9675 9.97568 22.6061 9.61428C22.2447 9.25288 22.0417 8.76272 22.0417 8.25163C22.0417 7.74053 22.2447 7.25037 22.6061 6.88897C22.9675 6.52758 23.4577 6.32454 23.9687 6.32454ZM15.875 8.63704C17.9194 8.63704 19.88 9.44917 21.3256 10.8948C22.7712 12.3404 23.5833 14.301 23.5833 16.3454C23.5833 18.3898 22.7712 20.3504 21.3256 21.796C19.88 23.2416 17.9194 24.0537 15.875 24.0537C13.8306 24.0537 11.87 23.2416 10.4244 21.796C8.97879 20.3504 8.16666 18.3898 8.16666 16.3454C8.16666 14.301 8.97879 12.3404 10.4244 10.8948C11.87 9.44917 13.8306 8.63704 15.875 8.63704ZM15.875 11.7204C14.6484 11.7204 13.472 12.2077 12.6046 13.075C11.7373 13.9424 11.25 15.1188 11.25 16.3454C11.25 17.572 11.7373 18.7484 12.6046 19.6157C13.472 20.4831 14.6484 20.9704 15.875 20.9704C17.1016 20.9704 18.278 20.4831 19.1454 19.6157C20.0127 18.7484 20.5 17.572 20.5 16.3454C20.5 15.1188 20.0127 13.9424 19.1454 13.075C18.278 12.2077 17.1016 11.7204 15.875 11.7204Z" fill="#06080A" fill-opacity="0.8"/>
</svg>
