<svg width="30" height="30" viewBox="0 0 30 30" fill="none" xmlns="http://www.w3.org/2000/svg">
<path d="M13.525 10.5338C12.575 9.17753 12.2175 8.19378 12.14 7.47753C12.0662 6.80253 12.2312 6.26503 12.5588 5.74878C12.9125 5.19003 13.4438 4.67128 14.1187 4.05753C14.75 3.48503 15.54 2.80378 16.16 2.03253L14.2125 0.467529C13.6925 1.11378 13.0525 1.65128 12.44 2.20628C11.7725 2.81253 11.0037 3.53378 10.4488 4.41128C9.86625 5.33003 9.51125 6.42503 9.655 7.74878C9.795 9.03128 10.39 10.4138 11.4775 11.9675L13.525 10.5338ZM15.0875 6.74628C15.4425 5.89128 16.1638 5.03378 17.3125 4.05128L18.9375 5.94878C17.8987 6.84003 17.5262 7.39003 17.3938 7.70753C17.2638 8.02003 17.35 8.33128 17.4375 8.64128C17.5425 9.01128 17.7162 9.62878 17.705 10.2938C17.69 11.1763 17.3875 12.1088 16.665 13.1938L14.585 11.8063C15.1125 11.0163 15.2 10.5438 15.205 10.2525C15.2112 9.88378 15.115 9.67753 14.9587 9.05253C14.8088 8.45503 14.6975 7.68128 15.0875 6.74628ZM7.67625 12.5C8.26375 12.1075 8.98875 11.9075 9.66625 11.745L9.0825 9.31253C8.06625 9.55753 7.14375 9.88753 6.4425 10.3213C5.805 10.7163 5 11.42 5 12.5C5 13.4075 5.6075 14.1325 6.33125 14.6075C6.27672 14.8419 6.24946 15.0819 6.25 15.3225C6.25 16.5475 6.7725 17.5813 7.67875 18.3475C7.545 18.7225 7.485 19.14 7.50375 19.5575C6.5325 19.7463 5.58375 20.0238 4.79125 20.3875C4.25125 20.635 3.71875 20.9513 3.30375 21.3588C2.88625 21.77 2.5 22.3638 2.5 23.125C2.5 23.6588 2.73625 24.09 2.9675 24.3875C3.20375 24.69 3.5075 24.9488 3.8225 25.1675C4.455 25.6063 5.3025 26.0038 6.27125 26.3375C8.21875 27.01 10.8575 27.5 13.75 27.5C17.9087 27.5 20.8288 27.02 22.7375 26.5225C23.4628 26.3381 24.1745 26.1038 24.8675 25.8213C25.13 25.7113 25.3925 25.595 25.6375 25.45C25.65 25.4425 24.3525 23.3063 24.3575 23.3025C23.6525 23.67 22.8725 23.9025 22.1075 24.1025C20.4213 24.5425 17.7163 25 13.75 25C11.12 25 8.75875 24.5525 7.0875 23.975C6.4225 23.745 5.7275 23.4775 5.16125 23.05C5.305 22.9375 5.52375 22.8013 5.83375 22.66C6.53125 22.34 7.4875 22.0775 8.50875 21.9213C8.79542 22.2254 9.13458 22.4921 9.52625 22.7213C10.7325 23.4238 12.3912 23.75 14.375 23.75C16.0125 23.75 17.1975 23.585 17.9975 23.4075C18.4425 23.31 18.89 23.1988 19.3 22.9975C19.3037 22.995 18.1987 20.7538 18.1987 20.7538C17.9563 20.8413 17.7092 20.9121 17.4575 20.9663C16.8462 21.1025 15.845 21.25 14.375 21.25C12.6088 21.25 11.455 20.95 10.7862 20.5613C10.2537 20.2513 10.05 19.9063 10.0087 19.5313C11.0938 19.8475 12.3775 20 13.8287 20C15.6575 20 16.9763 19.8213 17.8638 19.6288C18.3463 19.525 18.8325 19.405 19.2812 19.1963C19.3062 19.1838 18.21 16.9375 18.21 16.9375C17.9257 17.044 17.633 17.1268 17.335 17.185C16.635 17.3363 15.4938 17.5 13.8275 17.5C11.8238 17.5 10.49 17.17 9.7 16.7213C9.11125 16.3863 8.8525 16.0113 8.775 15.6088C10.325 16.0163 12.2812 16.25 14.375 16.25C16.6462 16.25 18.7525 15.975 20.3538 15.5025L19.6462 13.105C18.3287 13.4938 16.4713 13.75 14.375 13.75C12.22 13.75 10.3187 13.48 8.9975 13.0725C8.3725 12.8813 7.94 12.6775 7.6775 12.5M21.9875 13.4325C23.5037 13.295 24.0625 13.6675 24.2425 13.86C24.4287 14.06 24.4938 14.37 24.4125 14.6975C24.2675 15.2775 23.8587 15.84 23.1962 16.3575C22.535 16.8738 21.6963 17.2825 20.855 17.5638L21.645 19.935C22.68 19.59 23.7925 19.0625 24.7338 18.3288C25.6713 17.5963 26.5138 16.5975 26.8375 15.3038C27.0687 14.3788 26.9775 13.1275 26.07 12.1538C25.1575 11.1763 23.6838 10.7675 21.7612 10.9425L21.9875 13.4325Z" fill="#EFEFEF"/>
</svg>
