<svg width="31" height="30" viewBox="0 0 31 30" fill="none" xmlns="http://www.w3.org/2000/svg">
<path d="M25.375 0C26.7011 0 27.9729 0.526784 28.9105 1.46447C29.8482 2.40215 30.375 3.67392 30.375 5V25C30.375 26.3261 29.8482 27.5979 28.9105 28.5355C27.9729 29.4732 26.7011 30 25.375 30H5.375C4.04892 30 2.77715 29.4732 1.83947 28.5355C0.901784 27.5979 0.375 26.3261 0.375 25V5C0.375 3.67392 0.901784 2.40215 1.83947 1.46447C2.77715 0.526784 4.04892 0 5.375 0H25.375ZM25.375 3.33333H5.375C4.93297 3.33333 4.50905 3.50893 4.19649 3.82149C3.88393 4.13405 3.70833 4.55797 3.70833 5V25C3.70833 25.442 3.88393 25.866 4.19649 26.1785C4.50905 26.4911 4.93297 26.6667 5.375 26.6667H25.375C25.817 26.6667 26.241 26.4911 26.5535 26.1785C26.8661 25.866 27.0417 25.442 27.0417 25V5C27.0417 4.55797 26.8661 4.13405 26.5535 3.82149C26.241 3.50893 25.817 3.33333 25.375 3.33333ZM8.70833 11.6667C9.11656 11.6667 9.51056 11.8166 9.81562 12.0879C10.1207 12.3591 10.3156 12.7329 10.3633 13.1383L10.375 13.3333V21.6667C10.3745 22.0915 10.2119 22.5001 9.92025 22.8089C9.62864 23.1178 9.23008 23.3037 8.80601 23.3286C8.38194 23.3535 7.96437 23.2155 7.63861 22.9429C7.31286 22.6702 7.10351 22.2835 7.05333 21.8617L7.04167 21.6667V13.3333C7.04167 12.8913 7.21726 12.4674 7.52982 12.1548C7.84238 11.8423 8.26631 11.6667 8.70833 11.6667ZM13.7083 10C14.0987 9.99994 14.4766 10.1369 14.7763 10.3869C15.076 10.637 15.2785 10.9843 15.3483 11.3683C15.684 11.1745 16.0307 11.0003 16.3867 10.8467C17.4983 10.3717 19.1633 10.11 20.6667 10.5817C21.455 10.8317 22.2467 11.2983 22.8333 12.0933C23.3583 12.8017 23.6417 13.6633 23.6983 14.6317L23.7083 15V21.6667C23.7079 22.0915 23.5452 22.5001 23.2536 22.8089C22.962 23.1178 22.5634 23.3037 22.1393 23.3286C21.7153 23.3535 21.2977 23.2155 20.9719 22.9429C20.6462 22.6702 20.4368 22.2835 20.3867 21.8617L20.375 21.6667V15C20.375 14.45 20.2417 14.1933 20.155 14.075C20.0304 13.9204 19.8591 13.8105 19.6667 13.7617C19.0867 13.5783 18.2517 13.675 17.6967 13.9117C16.8633 14.2683 16.1 14.8283 15.58 15.3467L15.375 15.5667V21.6667C15.3745 22.0915 15.2119 22.5001 14.9203 22.8089C14.6286 23.1178 14.2301 23.3037 13.806 23.3286C13.3819 23.3535 12.9644 23.2155 12.6386 22.9429C12.3129 22.6702 12.1035 22.2835 12.0533 21.8617L12.0417 21.6667V11.6667C12.0417 11.2246 12.2173 10.8007 12.5298 10.4882C12.8424 10.1756 13.2663 10 13.7083 10ZM8.70833 6.66667C9.15036 6.66667 9.57428 6.84226 9.88684 7.15482C10.1994 7.46738 10.375 7.89131 10.375 8.33333C10.375 8.77536 10.1994 9.19928 9.88684 9.51184C9.57428 9.8244 9.15036 10 8.70833 10C8.26631 10 7.84238 9.8244 7.52982 9.51184C7.21726 9.19928 7.04167 8.77536 7.04167 8.33333C7.04167 7.89131 7.21726 7.46738 7.52982 7.15482C7.84238 6.84226 8.26631 6.66667 8.70833 6.66667Z" fill="#06080A" fill-opacity="0.8"/>
</svg>
