<svg width="30" height="31" viewBox="0 0 30 31" fill="none" xmlns="http://www.w3.org/2000/svg">
<path d="M17.175 5.78753C16.4246 4.89314 15.7102 3.96907 15.0337 3.01753C15.0299 3.01212 15.0249 3.0077 15.019 3.00464C15.0131 3.00159 15.0066 3 15 3C14.9934 3 14.9868 3.00159 14.981 3.00464C14.9751 3.0077 14.97 3.01212 14.9662 3.01753C14.2898 3.96949 13.5754 4.89398 12.825 5.78878C3.80999 17.2725 14.2475 25.02 14.2475 25.02L14.3312 25.0788C14.4112 26.2775 14.6075 28 14.6075 28H15.3925C15.3925 28 15.5887 26.285 15.6675 25.0875L15.7537 25.02C15.7537 25.02 26.19 17.2725 17.1762 5.78878M15 24.8525C15 24.8525 14.5325 24.4525 14.4062 24.2525L14.405 24.2325L14.9712 11.73C14.9726 11.7233 14.9763 11.7172 14.9817 11.7129C14.987 11.7085 14.9937 11.7061 15.0006 11.7061C15.0075 11.7061 15.0142 11.7085 15.0196 11.7129C15.0249 11.7172 15.0286 11.7233 15.03 11.73L15.595 24.2325V24.2538C15.4687 24.4538 15 24.8525 15 24.8525Z" fill="#EFEFEF"/>
</svg>
