<svg width="30" height="31" viewBox="0 0 30 31" fill="none" xmlns="http://www.w3.org/2000/svg">
<path d="M16.25 26.75C14.4663 25.4675 11.7625 21.9325 11.25 19.25C10.6425 20.2125 9.37376 21.75 8.75001 21.75C6.87626 20.64 8.03251 16.7837 8.75001 14.25C6.75501 12.4587 5.66501 11.1775 5.62501 9.24997C1.43751 4.94997 5.07001 2.66247 8.75001 5.49997H10C20.6025 6.12497 18.0263 15.5875 21.25 19.875C24.1188 20.5275 25.8313 22.6925 27.5 24.25C24.8925 24 24.02 23.82 23.125 24.25C23.7225 26.3 25.7788 27 27.5 28M11.25 9.24997H11.2625" stroke="#EFEFEF" stroke-width="2.5" stroke-linecap="round" stroke-linejoin="round"/>
</svg>
