<svg width="30" height="31" viewBox="0 0 30 31" fill="none" xmlns="http://www.w3.org/2000/svg">
<g clip-path="url(#clip0_127_237)">
<path d="M22.2647 28.6299C22.1531 28.689 22.1625 28.7077 22.2694 28.6534C22.3024 28.6401 22.3326 28.6207 22.3584 28.5962C22.3584 28.5765 22.3584 28.5765 22.2647 28.6299ZM22.4897 28.5081C22.4363 28.5521 22.4363 28.5521 22.5 28.5231C22.5232 28.5114 22.5446 28.4965 22.5638 28.479C22.5638 28.4537 22.5487 28.4593 22.4897 28.5081ZM22.6359 28.4199C22.5825 28.464 22.5825 28.464 22.6462 28.4349C22.6695 28.423 22.6909 28.4078 22.71 28.3899C22.71 28.3665 22.695 28.3712 22.6359 28.4199ZM22.7841 28.3327C22.7306 28.3768 22.7306 28.3768 22.7925 28.3468C22.8272 28.3281 22.8562 28.3084 22.8562 28.3027C22.8562 28.2793 22.8412 28.284 22.7841 28.3327ZM22.9838 28.2006C22.8816 28.269 22.8459 28.3131 22.9397 28.2643C23.0025 28.2259 23.1094 28.1415 23.0906 28.1415C23.0503 28.1565 23.0166 28.1818 22.9828 28.2006H22.9838ZM14.0184 0.510553C13.95 0.51524 13.7447 0.53399 13.5647 0.54899C9.30094 0.93524 5.31188 3.23024 2.78344 6.76555C1.38524 8.70403 0.476889 10.9521 0.135937 13.3177C0.015 14.1427 0 14.3865 0 15.5049C0 16.6224 0.015 16.8624 0.135937 17.6874C0.9525 23.3227 4.96125 28.0534 10.395 29.8065C11.3728 30.1187 12.3975 30.3343 13.5647 30.4665C14.0184 30.5152 15.9806 30.5152 16.4344 30.4665C18.4519 30.2415 20.1553 29.7437 21.8409 28.884C22.0997 28.7527 22.1484 28.7181 22.1137 28.689C21.2915 27.602 20.4761 26.5098 19.6678 25.4124L17.2706 22.1752L14.2678 17.7268C13.269 16.2374 12.2599 14.7548 11.2406 13.2793C11.2303 13.2793 11.2172 15.2565 11.2116 17.6677C11.2013 21.8912 11.2013 22.0627 11.1478 22.1602C11.0967 22.2781 11.0049 22.3736 10.8891 22.4293C10.7962 22.4734 10.7128 22.4827 10.2694 22.4827H9.76219L9.63 22.4002C9.54735 22.347 9.48012 22.2729 9.435 22.1856L9.37125 22.0534L9.37594 16.1743L9.38625 10.2952L9.47906 10.1781C9.53911 10.1068 9.61192 10.0473 9.69375 10.0027C9.81656 9.94368 9.86531 9.9343 10.3725 9.9343C10.9678 9.9343 11.0662 9.95774 11.2228 10.1293C12.4392 11.9386 13.6452 13.7548 14.8406 15.5781C16.7897 18.5331 19.4503 22.5652 20.7581 24.5434L23.1366 28.1424L23.2537 28.0646C24.3964 27.3045 25.4322 26.3949 26.3334 25.3599C28.2228 23.197 29.4489 20.5356 29.865 17.694C29.9859 16.869 30.0009 16.6243 30.0009 15.5068C30.0009 14.3893 29.9859 14.1493 29.865 13.3243C29.0484 7.68899 25.0397 2.95837 19.6059 1.2043C18.5904 0.88277 17.5452 0.663863 16.4859 0.550865C16.2019 0.521803 14.2631 0.487115 14.0194 0.512428L14.0184 0.510553ZM20.1562 9.58274C20.2261 9.61686 20.2884 9.66464 20.3394 9.72326C20.3905 9.78187 20.4292 9.85013 20.4534 9.92399C20.4788 10.0027 20.4834 11.6331 20.4788 15.3052L20.4684 20.5777L19.5413 19.1527L18.6084 17.7268V13.899C18.6084 11.4174 18.6187 10.0262 18.6319 9.95774C18.6778 9.80082 18.783 9.66797 18.9253 9.58743C19.0416 9.52837 19.0866 9.52368 19.5506 9.52368C19.9847 9.52368 20.0588 9.52837 20.1562 9.58274Z" fill="#EFEFEF"/>
</g>
<defs>
<clipPath id="clip0_127_237">
<rect width="30" height="30" fill="white" transform="translate(0 0.5)"/>
</clipPath>
</defs>
</svg>
