<svg width="30" height="31" viewBox="0 0 30 31" fill="none" xmlns="http://www.w3.org/2000/svg">
<g clip-path="url(#clip0_127_312)">
<path d="M15 30.445C14.5725 30.445 14.175 30.3338 13.8038 30.1413L10.0175 27.9688C9.44875 27.6663 9.73375 27.5563 9.905 27.5013C10.6725 27.2538 10.815 27.1988 11.6125 26.7575C11.6975 26.7025 11.8125 26.73 11.8975 26.785L14.8012 28.4638C14.9137 28.5188 15.0575 28.5188 15.1425 28.4638L26.5013 22.1088C26.6138 22.0538 26.6712 21.9438 26.6712 21.8063V9.12379C26.6712 8.98629 26.615 8.87629 26.5013 8.82129L15.1425 2.49504C15.0288 2.44004 14.8862 2.44004 14.8012 2.49504L3.4425 8.82129C3.32875 8.87629 3.27125 9.01379 3.27125 9.12379V21.8063C3.27125 21.9163 3.32875 22.0538 3.4425 22.1088L6.545 23.8425C8.225 24.6675 9.2775 23.705 9.2775 22.7425V10.225C9.2775 10.06 9.42 9.89503 9.62 9.89503H11.0713C11.2425 9.89503 11.4125 10.0325 11.4125 10.225V22.7413C11.4125 24.915 10.1887 26.18 8.05375 26.18C7.39875 26.18 6.88625 26.18 5.435 25.4925L2.44625 23.8425C2.08636 23.6442 1.78583 23.3535 1.57557 23.0005C1.36532 22.6474 1.25294 22.2447 1.25 21.8338V9.15129C1.25 8.32629 1.705 7.55629 2.44625 7.14379L13.805 0.787535C14.1749 0.598386 14.5845 0.499756 15 0.499756C15.4155 0.499756 15.8251 0.598386 16.195 0.787535L27.555 7.14254C28.295 7.55504 28.75 8.32504 28.75 9.15004V21.8325C28.75 22.6575 28.295 23.4275 27.555 23.8413L16.1962 30.195C15.8187 30.3587 15.4115 30.443 15 30.4425M18.5012 21.7213C13.52 21.7213 12.495 19.5213 12.495 17.65C12.495 17.485 12.6375 17.32 12.8363 17.32H14.3162C14.4875 17.32 14.6287 17.43 14.6287 17.595C14.8575 19.0525 15.5125 19.7675 18.53 19.7675C20.9213 19.7675 21.9462 19.245 21.9462 18.0075C21.9462 17.2925 21.6612 16.77 17.9325 16.4125C14.8287 16.1088 12.8937 15.45 12.8937 13.0563C12.8937 10.8275 14.8288 9.50629 18.075 9.50629C21.7188 9.50629 23.5125 10.7175 23.74 13.3588C23.7372 13.4482 23.7071 13.5345 23.6538 13.6063C23.5975 13.6613 23.5125 13.7163 23.4262 13.7163H21.9462C21.8744 13.7145 21.805 13.6895 21.7486 13.6448C21.6922 13.6002 21.6519 13.5384 21.6337 13.4688C21.2912 11.9563 20.4088 11.46 18.075 11.46C15.455 11.46 15.1425 12.34 15.1425 13.0013C15.1425 13.7988 15.5125 14.0463 19.0425 14.4863C22.5438 14.9263 24.195 15.5588 24.195 17.9238C24.1663 20.3463 22.1175 21.7213 18.5012 21.7213Z" fill="#EFEFEF"/>
</g>
<defs>
<clipPath id="clip0_127_312">
<rect width="30" height="30" fill="white" transform="translate(0 0.5)"/>
</clipPath>
</defs>
</svg>
