<svg width="30" height="30" viewBox="0 0 30 30" fill="none" xmlns="http://www.w3.org/2000/svg">
<path d="M21.0062 1.25C19.906 1.2603 18.812 1.41581 17.7525 1.7125L17.6775 1.735C17.0104 1.62061 16.3355 1.55751 15.6587 1.54625C14.2675 1.5225 13.0712 1.85 12.1087 2.39625C11.1587 2.07625 9.18873 1.525 7.11248 1.635C5.66623 1.71125 4.08873 2.1375 2.91998 3.335C1.75373 4.5325 1.13748 6.385 1.26748 8.90625C1.30248 9.6025 1.50623 10.7363 1.84623 12.2063C2.18373 13.675 2.66123 15.3937 3.25498 16.9625C3.84873 18.5312 4.49998 19.9425 5.51748 20.9C6.02498 21.38 6.72373 21.7837 7.54748 21.75C8.12623 21.7275 8.64998 21.4812 9.10123 21.1175C9.32123 21.3987 9.55623 21.5212 9.76998 21.635C10.0387 21.7775 10.3012 21.875 10.5725 21.94C11.3236 22.1326 12.106 22.1713 12.8725 22.0537C13.2062 22 13.5575 21.895 13.9075 21.745C13.92 22.1225 13.935 22.4925 13.9512 22.8675C13.9987 24.055 14.03 25.1512 14.3975 26.1125C14.4562 26.27 14.6175 27.0787 15.2562 27.7925C15.8937 28.5075 17.1437 28.9525 18.5662 28.6575C19.57 28.4488 20.8475 28.0725 21.695 26.9025C22.5325 25.745 22.9112 24.085 22.9862 21.3913C23.005 21.2463 23.0275 21.1225 23.0512 21.0063L23.2512 21.0238H23.2737C24.345 21.0713 25.5075 20.9237 26.4787 20.4862C27.3387 20.0987 27.9887 19.7087 28.4625 19.015C28.5812 18.8438 28.7112 18.6362 28.7462 18.2775C28.7812 17.9212 28.5712 17.3612 28.22 17.1037C27.5162 16.5862 27.075 16.7825 26.6012 16.8787C26.1346 16.9788 25.6612 17.0342 25.1812 17.045C26.5475 14.815 27.5262 12.445 28.085 10.3475C28.415 9.11 28.6012 7.96875 28.6162 6.97125C28.6312 5.97375 28.5475 5.09 27.9312 4.325C26.005 1.9375 23.2962 1.2775 21.2012 1.255C21.1362 1.25333 21.0712 1.25292 21.0062 1.25375V1.25ZM20.9512 1.98375C22.9325 1.965 25.465 2.505 27.2825 4.75875C27.6912 5.265 27.8125 6.005 27.7987 6.9175C27.7837 7.82875 27.61 8.91875 27.2925 10.1137C26.6762 12.4287 25.5112 15.1262 23.87 17.5487C23.9283 17.5891 23.9912 17.6223 24.0575 17.6475C24.4 17.785 25.18 17.9025 26.7387 17.5925C27.13 17.5112 27.4175 17.4575 27.715 17.6775C27.7862 17.7366 27.8427 17.8113 27.8802 17.8959C27.9178 17.9805 27.9352 18.0726 27.9312 18.165C27.9147 18.3046 27.8617 18.4374 27.7775 18.55C27.4775 18.9888 26.8825 19.405 26.12 19.7475C25.4462 20.0525 24.4787 20.2113 23.6212 20.2213C23.1912 20.225 22.795 20.1925 22.4587 20.0912L22.4362 20.0837C22.3062 21.2975 22.0075 23.6963 21.8137 24.79C21.6575 25.6725 21.385 26.3737 20.8637 26.8987C20.3437 27.4237 19.6087 27.74 18.6187 27.9463C17.3925 28.2013 16.4987 27.9263 15.9225 27.455C15.3475 26.9863 15.0837 26.3625 14.925 25.98C14.8162 25.7175 14.76 25.3763 14.705 24.92C14.6445 24.3737 14.6041 23.8255 14.5837 23.2763C14.5479 22.3134 14.5362 21.3497 14.5487 20.3862C14.0362 20.84 13.3987 21.1425 12.715 21.2562C11.9025 21.39 11.175 21.2588 10.7412 21.1538C10.5286 21.1013 10.323 21.0237 10.1287 20.9225C9.92623 20.8188 9.73498 20.7013 9.60748 20.4688C9.53236 20.336 9.50835 20.1804 9.53998 20.0312C9.58092 19.8797 9.67161 19.7463 9.79748 19.6525C10.0325 19.4675 10.3412 19.365 10.8075 19.27C11.6575 19.1012 11.9537 18.985 12.1337 18.8462C12.2875 18.7275 12.4612 18.4875 12.7687 18.1338L12.765 18.0875C12.217 18.0714 11.6797 17.9312 11.1937 17.6775C11.0175 17.8575 10.1125 18.7862 9.00873 20.0737C8.54498 20.6125 8.03248 20.9212 7.49123 20.9437C6.94998 20.9662 6.46123 20.7013 6.04623 20.3113C5.21498 19.5288 4.55248 18.1825 3.97498 16.6613C3.39998 15.1388 2.92998 13.4438 2.59748 12C2.26248 10.5563 2.06498 9.3925 2.03748 8.83125C1.91248 6.445 2.48748 4.8375 3.47498 3.82375C4.46248 2.81 5.81498 2.425 7.13498 2.3525C9.50248 2.22 11.7512 3.02125 12.2062 3.19375C13.0825 2.61625 14.2112 2.25625 15.6225 2.27875C16.2914 2.28805 16.9572 2.3719 17.6075 2.52875L17.6312 2.51875C17.9179 2.42125 18.2087 2.33958 18.5037 2.27375C19.3068 2.09248 20.1267 1.99612 20.95 1.98625L20.9512 1.98375ZM21.13 2.75125H20.9587C20.2824 2.76036 19.6085 2.83403 18.9462 2.97125C20.2609 3.54385 21.416 4.42861 22.3112 5.54875C22.8536 6.21888 23.3034 6.95883 23.6487 7.74875C23.7787 8.05125 23.8662 8.3075 23.915 8.505C23.94 8.605 23.9575 8.68875 23.9625 8.77625C23.9671 8.83163 23.9625 8.8874 23.9487 8.94125L23.9412 8.95625C23.9775 9.96 23.7212 10.64 23.69 11.5975C23.6662 12.2925 23.8487 13.1088 23.8937 13.9975C23.9362 14.835 23.8325 15.7537 23.2725 16.6562C23.3191 16.7112 23.3641 16.7662 23.4075 16.8212C24.8887 14.5588 25.9575 12.0538 26.5262 9.92C26.83 8.77 26.9925 7.72875 27.0062 6.90375C27.0187 6.07875 26.86 5.48 26.6575 5.23125C25.0725 3.265 22.9287 2.765 21.13 2.75125ZM15.4737 3.04375C14.0775 3.04625 13.075 3.45625 12.3162 4.06875C11.5325 4.7025 11.0075 5.56875 10.6625 6.4575C10.3285 7.34567 10.1244 8.27733 10.0562 9.22375L10.0725 9.215C10.4937 8.985 11.0475 8.75625 11.64 8.62375C12.2337 8.49125 12.8725 8.45 13.4512 8.6675C14.03 8.885 14.5087 9.3975 14.6825 10.175C15.5137 13.9075 14.4237 15.295 14.0212 16.3412C13.8702 16.721 13.74 17.1086 13.6312 17.5025C13.6812 17.4883 13.7317 17.4783 13.7825 17.4725C14.0021 17.4606 14.2211 17.5036 14.42 17.5975C14.825 17.76 15.1025 18.1 15.2525 18.49C15.2916 18.5933 15.3196 18.7017 15.3362 18.815C15.3529 18.8625 15.3608 18.9112 15.36 18.9613C15.3151 20.3885 15.3201 21.8169 15.375 23.2437C15.4025 23.8612 15.4425 24.4037 15.4937 24.8325C15.5437 25.26 15.6162 25.585 15.6625 25.695C15.8125 26.0625 16.0337 26.5425 16.4337 26.8688C16.8337 27.195 17.405 27.4112 18.4512 27.1937C19.3587 27.005 19.9187 26.7437 20.2937 26.365C20.6662 25.9887 20.89 25.465 21.0325 24.6613C21.2462 23.4575 21.6762 19.9688 21.7275 19.3113C21.705 18.8175 21.78 18.4363 21.9425 18.1462C22.1112 17.8488 22.3712 17.6663 22.595 17.5675C22.7075 17.5175 22.8125 17.485 22.8987 17.4613C22.8068 17.3341 22.7109 17.2099 22.6112 17.0887C22.288 16.7106 22.023 16.2864 21.825 15.83C21.7296 15.6423 21.6283 15.4576 21.5212 15.2762C21.365 15.0012 21.1662 14.6575 20.9587 14.2712C20.5425 13.4975 20.09 12.56 19.855 11.6463C19.6212 10.735 19.5862 9.79125 20.1862 9.125C20.7187 8.53375 21.6512 8.28875 23.0525 8.42625C23.0112 8.30625 22.9862 8.20625 22.9162 8.04625C22.6 7.31999 22.1867 6.64003 21.6875 6.025C20.5 4.5525 18.5787 3.0925 15.6087 3.045H15.4737V3.04375ZM7.62873 3.1025C7.47873 3.1025 7.32873 3.10667 7.17873 3.115C5.98623 3.18125 4.85873 3.5175 4.05248 4.3475C3.24373 5.17625 2.71248 6.53625 2.82748 8.78875C2.85123 9.21375 3.04248 10.4088 3.36998 11.8263C3.69748 13.2463 4.16248 14.915 4.71998 16.3888C5.27748 17.8638 5.95498 19.1475 6.59748 19.755C6.92123 20.0588 7.20248 20.1812 7.45748 20.1712C7.71373 20.1587 8.02123 20.0162 8.39873 19.5775C9.08622 18.773 9.79908 17.9905 10.5362 17.2312C10.0154 16.7945 9.61445 16.2322 9.37123 15.5975C9.13 14.9688 9.05676 14.2881 9.15873 13.6225C9.27998 12.775 9.29623 11.9825 9.28248 11.3575C9.26748 10.7475 9.22248 10.3425 9.22248 10.0887V10.0538C9.22119 8.73267 9.45789 7.42216 9.92123 6.185C10.2512 5.3325 10.7437 4.46625 11.4825 3.765C10.7575 3.53375 9.46998 3.18125 8.07623 3.115C7.92636 3.10697 7.77632 3.10281 7.62623 3.1025H7.62873ZM22.2712 9.155C21.47 9.165 21.02 9.36625 20.7837 9.62875C20.4487 10.0013 20.4175 10.6537 20.625 11.4587C20.8325 12.2638 21.2587 13.165 21.6612 13.9125C21.8612 14.2875 22.0562 14.625 22.2137 14.8975C22.3725 15.1725 22.4887 15.3675 22.5587 15.535C22.6254 15.6858 22.6954 15.8237 22.7687 15.9487C23.0787 15.3125 23.135 14.6887 23.1025 14.0375C23.0612 13.2325 22.8687 12.4088 22.8975 11.575C22.9287 10.6 23.1275 9.96375 23.145 9.21C22.8551 9.17467 22.5633 9.1563 22.2712 9.155ZM12.5462 9.28625C12.3014 9.28811 12.0574 9.31661 11.8187 9.37125C11.3442 9.48314 10.8862 9.65626 10.4562 9.88625C10.3121 9.96125 10.1746 10.0483 10.0437 10.1475L10.0187 10.17C10.0262 10.3375 10.06 10.7437 10.075 11.34C10.0875 11.9937 10.0725 12.8275 9.94248 13.7275C9.65998 15.6875 11.125 17.31 12.8475 17.3125C12.9475 16.91 13.1137 16.5025 13.2787 16.0725C13.7587 14.8187 14.7025 13.905 13.9075 10.3363C13.7775 9.7525 13.52 9.51625 13.165 9.3825C12.9662 9.31348 12.7566 9.28087 12.5462 9.28625ZM21.8962 9.52H21.9562C22.0346 9.5225 22.1054 9.53083 22.1687 9.545C22.2262 9.55656 22.2812 9.57814 22.3312 9.60875C22.354 9.62216 22.3737 9.64022 22.389 9.66177C22.4043 9.68331 22.4148 9.70784 22.42 9.73375V9.74375C22.4233 9.79869 22.4083 9.85317 22.3775 9.89875C22.3426 9.96178 22.2988 10.0195 22.2475 10.07C22.1263 10.1985 21.9666 10.2841 21.7925 10.3138C21.6218 10.334 21.4495 10.2918 21.3075 10.195C21.2503 10.1572 21.1986 10.1118 21.1537 10.06C21.1158 10.0195 21.0899 9.96934 21.0787 9.915C21.076 9.88827 21.0791 9.86126 21.0877 9.83581C21.0963 9.81036 21.1103 9.78707 21.1287 9.7675C21.1687 9.72555 21.2156 9.69087 21.2675 9.665C21.4655 9.5741 21.6797 9.52394 21.8975 9.5175L21.8962 9.52ZM12.6612 9.7125C12.7237 9.7125 12.7892 9.7175 12.8575 9.7275C13.0375 9.7525 13.1987 9.79875 13.3212 9.8675C13.3812 9.89833 13.4337 9.93875 13.4787 9.98875C13.5021 10.0163 13.5196 10.0467 13.5312 10.08C13.5429 10.1133 13.5466 10.1479 13.5425 10.1838C13.5311 10.25 13.5002 10.3114 13.4537 10.36C13.4054 10.4182 13.3485 10.4688 13.285 10.51C13.1298 10.6157 12.9414 10.6615 12.755 10.6388C12.5658 10.6082 12.3919 10.5164 12.26 10.3775C12.2051 10.3216 12.158 10.2585 12.12 10.19C12.0811 10.1301 12.0638 10.0586 12.0712 9.9875C12.0887 9.8625 12.195 9.8 12.2962 9.7625C12.4133 9.72537 12.5362 9.71012 12.6587 9.7175L12.6612 9.7125ZM23.3612 18.1275H23.3575C23.1837 18.19 23.0412 18.215 22.92 18.265C22.7992 18.3098 22.6991 18.3974 22.6387 18.5112C22.5637 18.6425 22.5012 18.8762 22.52 19.2738C22.5738 19.3093 22.6329 19.3363 22.695 19.3538C22.8962 19.4137 23.235 19.4537 23.6137 19.4475C24.3662 19.4387 25.2937 19.2688 25.7862 19.0463C26.19 18.8638 26.565 18.6263 26.9 18.3413C25.2537 18.6713 24.325 18.5837 23.7537 18.355C23.6128 18.2975 23.4807 18.2218 23.3612 18.1275ZM13.8762 18.2337H13.8512C13.7887 18.2388 13.6975 18.2587 13.5225 18.4487C13.11 18.8962 12.9675 19.1763 12.6275 19.4387C12.29 19.7013 11.8487 19.84 10.9687 20.015C10.69 20.07 10.5312 20.1312 10.4237 20.18C10.4587 20.2075 10.455 20.215 10.5062 20.2413C10.635 20.31 10.8012 20.37 10.9337 20.4037C11.3125 20.495 11.9337 20.6025 12.5825 20.495C13.2312 20.3875 13.905 20.0863 14.48 19.3037C14.58 19.1687 14.59 18.9688 14.5087 18.7537C14.425 18.5413 14.245 18.3562 14.1175 18.3037C14.0414 18.2679 13.9599 18.2451 13.8762 18.2362V18.2337Z" fill="#EFEFEF"/>
</svg>
