<svg width="30" height="31" viewBox="0 0 30 31" fill="none" xmlns="http://www.w3.org/2000/svg">
<g clip-path="url(#clip0_127_208)">
<path d="M15.9863 20.4566L20.8247 17.6591V12.0726L15.9863 14.8654V20.4566ZM16.4447 20.7201L20.8247 23.2485V18.1945L16.4447 20.7248V20.7201ZM20.5613 11.0816V6.02758L16.1813 8.55133L20.5613 11.076V11.0816ZM15.7228 8.82039L10.8788 11.6141L15.7228 14.4116L20.5613 11.6141L15.7228 8.82039ZM15.2588 8.55133L10.8788 6.02758V11.0816L15.2588 8.55133ZM21.2888 12.3416V17.3901L25.6641 14.8654L21.2888 12.337V12.3416ZM15.4585 20.4566V14.8654L10.6144 12.0726V17.6591L15.4585 20.4566ZM10.1513 12.336L5.77596 14.8645L10.1513 17.3891V12.336ZM10.6153 18.1954V23.2495L14.9953 20.721L10.6153 18.1954ZM25.0097 0.666016H4.9744C2.23596 0.666016 -0.000915527 2.87758 -0.000915527 5.57758V25.3691C-0.000915527 28.0738 2.23502 30.2807 4.9744 30.2807H18.691L14.9897 21.3998L12.3047 27.0098H4.9744C4.07721 27.0098 3.31408 26.257 3.31408 25.3701V5.57852C3.31408 4.69445 4.07627 3.94352 4.9744 3.94352H25.0097C25.9088 3.94352 26.67 4.69445 26.67 5.57852V25.3701C26.67 26.2579 25.9088 27.0098 25.0097 27.0098H20.6635L22.0256 30.2807H25.0097C27.7435 30.2807 29.985 28.0748 29.985 25.3691V5.57758C29.985 2.87758 27.7435 0.666016 25.0097 0.666016Z" fill="#EFEFEF"/>
</g>
<defs>
<clipPath id="clip0_127_208">
<rect width="30" height="30" fill="white" transform="translate(0 0.5)"/>
</clipPath>
</defs>
</svg>
