<svg width="30" height="31" viewBox="0 0 30 31" fill="none" xmlns="http://www.w3.org/2000/svg">
<path d="M15 13.1376C16.2875 13.1376 17.3375 14.1876 17.3375 15.5001C17.3375 16.7501 16.2875 17.8126 15 17.8126C13.7125 17.8126 12.6625 16.7501 12.6625 15.5001C12.6625 14.1876 13.7125 13.1376 15 13.1376ZM9.2125 25.5001C10 25.9751 11.725 25.25 13.7125 23.375C13.0625 22.6376 12.425 21.8376 11.825 21C10.8178 20.903 9.81638 20.7527 8.825 20.5501C8.1875 23.2251 8.425 25.0626 9.2125 25.5001ZM10.1 18.3251L9.7375 17.6876C9.6 18.0501 9.4625 18.4126 9.375 18.7626C9.7125 18.8376 10.0875 18.9001 10.475 18.9626L10.1 18.3251ZM18.275 17.3751L19.2875 15.5001L18.275 13.6251C17.9 12.9626 17.5 12.3751 17.1375 11.7876C16.4625 11.7501 15.75 11.7501 15 11.7501C14.25 11.7501 13.5375 11.7501 12.8625 11.7876C12.5 12.3751 12.1 12.9626 11.725 13.6251L10.7125 15.5001L11.725 17.3751C12.1 18.0376 12.5 18.6251 12.8625 19.2126C13.5375 19.2501 14.25 19.2501 15 19.2501C15.75 19.2501 16.4625 19.2501 17.1375 19.2126C17.5 18.6251 17.9 18.0376 18.275 17.3751ZM15 8.97505C14.7625 9.25005 14.5125 9.53755 14.2625 9.87505H15.7375C15.4875 9.53755 15.2375 9.25005 15 8.97505ZM15 22.0251C15.2375 21.75 15.4875 21.4626 15.7375 21.1251H14.2625C14.5125 21.4626 14.7625 21.75 15 22.0251ZM20.775 5.50005C20 5.02505 18.275 5.75005 16.2875 7.62505C16.9375 8.36255 17.575 9.16255 18.175 10.0001C19.2 10.1001 20.2125 10.2501 21.175 10.4501C21.8125 7.77505 21.575 5.93755 20.775 5.50005ZM19.9 12.6751L20.2625 13.3126C20.4 12.9501 20.5375 12.5876 20.625 12.2376C20.2875 12.1626 19.9125 12.1001 19.525 12.0375L19.9 12.6751ZM21.7125 3.86255C23.55 4.91255 23.75 7.67505 22.975 10.9001C26.15 11.8376 28.4375 13.3876 28.4375 15.5001C28.4375 17.6126 26.15 19.1626 22.975 20.1001C23.75 23.3251 23.55 26.0876 21.7125 27.1376C19.8875 28.1875 17.4 26.9876 15 24.7001C12.6 26.9876 10.1125 28.1875 8.275 27.1376C6.45 26.0876 6.25 23.3251 7.025 20.1001C3.85 19.1626 1.5625 17.6126 1.5625 15.5001C1.5625 13.3876 3.85 11.8376 7.025 10.9001C6.25 7.67505 6.45 4.91255 8.275 3.86255C10.1125 2.81255 12.6 4.01255 15 6.30005C17.4 4.01255 19.8875 2.81255 21.7125 3.86255ZM21.35 15.5001C21.775 16.4376 22.15 17.3751 22.4625 18.3251C25.0875 17.5376 26.5625 16.4126 26.5625 15.5001C26.5625 14.5876 25.0875 13.4626 22.4625 12.6751C22.15 13.6251 21.775 14.5626 21.35 15.5001ZM8.65 15.5001C8.225 14.5626 7.85 13.6251 7.5375 12.6751C4.9125 13.4626 3.4375 14.5876 3.4375 15.5001C3.4375 16.4126 4.9125 17.5376 7.5375 18.3251C7.85 17.3751 8.225 16.4376 8.65 15.5001ZM19.9 18.3251L19.525 18.9626C19.9125 18.9001 20.2875 18.8376 20.625 18.7626C20.5375 18.4126 20.4 18.0501 20.2625 17.6876L19.9 18.3251ZM16.2875 23.375C18.275 25.25 20 25.9751 20.775 25.5001C21.575 25.0626 21.8125 23.2251 21.175 20.5501C20.2125 20.7501 19.2 20.9001 18.175 21C17.575 21.8376 16.9375 22.6376 16.2875 23.375ZM10.1 12.6751L10.475 12.0375C10.0875 12.1001 9.7125 12.1626 9.375 12.2376C9.4625 12.5876 9.6 12.9501 9.7375 13.3126L10.1 12.6751ZM13.7125 7.62505C11.725 5.75005 10 5.02505 9.2125 5.50005C8.425 5.93755 8.1875 7.77505 8.825 10.4501C9.81638 10.2474 10.8178 10.0972 11.825 10.0001C12.425 9.16255 13.0625 8.36255 13.7125 7.62505Z" fill="#EFEFEF"/>
</svg>
