<svg width="30" height="31" viewBox="0 0 30 31" fill="none" xmlns="http://www.w3.org/2000/svg">
<g clip-path="url(#clip0_127_200)">
<path d="M29.6162 13.8824L23.7037 3.65119C23.1912 2.76369 21.9325 2.03369 20.9037 2.03369H9.09123C8.06623 2.03369 6.80248 2.76369 6.29123 3.65119L0.382483 13.8824C-0.130017 14.7699 -0.130017 16.2237 0.382483 17.1124L6.28873 27.3487C6.80123 28.2362 8.05998 28.9662 9.08873 28.9662H20.9075C21.9325 28.9662 23.19 28.2362 23.7075 27.3487L29.615 17.1112C30.1275 16.2237 30.1275 14.7699 29.615 13.8824H29.6162ZM13.72 7.69369C13.72 7.02244 14.2675 6.47494 14.9375 6.47494C15.6075 6.47494 16.1562 7.02244 16.1562 7.69369V14.9699C16.1364 15.2794 15.9995 15.5696 15.7733 15.7817C15.5472 15.9938 15.2488 16.1119 14.9387 16.1119C14.6287 16.1119 14.3303 15.9938 14.1041 15.7817C13.878 15.5696 13.7411 15.2794 13.7212 14.9699L13.72 7.69369ZM14.9375 23.2312C12.7476 23.2282 10.6483 22.3568 9.10007 20.8081C7.55183 19.2594 6.68105 17.1598 6.67873 14.9699C6.68188 13.6819 6.98475 12.4123 7.56337 11.2616C8.14199 10.1109 8.98048 9.11061 10.0125 8.33994C10.1268 8.25479 10.2568 8.19304 10.395 8.15825C10.5332 8.12347 10.677 8.11632 10.818 8.13723C10.959 8.15813 11.0944 8.20668 11.2166 8.28008C11.3388 8.35348 11.4453 8.45028 11.53 8.56494C11.6151 8.67905 11.6768 8.80883 11.7117 8.94684C11.7466 9.08485 11.7539 9.22838 11.7332 9.36922C11.7126 9.51005 11.6643 9.64543 11.5913 9.7676C11.5182 9.88977 11.4218 9.99634 11.3075 10.0812C10.0553 11.0609 9.23541 12.4911 9.02285 14.0668C8.81029 15.6424 9.22184 17.2388 10.1697 18.5153C11.1176 19.7918 12.5267 20.6473 14.0965 20.8995C15.6663 21.1516 17.2725 20.7804 18.5725 19.8649C19.3356 19.2972 19.9553 18.5589 20.3822 17.709C20.8091 16.859 21.0314 15.9211 21.0312 14.9699C21.0284 14.0153 20.8025 13.0744 20.3715 12.2226C19.9404 11.3707 19.3163 10.6314 18.5487 10.0637C18.3177 9.89241 18.1639 9.63657 18.121 9.35217C18.0782 9.06777 18.1497 8.77797 18.32 8.54619C18.4913 8.31515 18.7471 8.16136 19.0315 8.11849C19.3159 8.07562 19.6057 8.14715 19.8375 8.31744C20.8779 9.08707 21.7235 10.0896 22.3068 11.2449C22.89 12.4001 23.1947 13.6758 23.1962 14.9699C23.1946 17.1601 22.3238 19.2601 20.7751 20.8088C19.2264 22.3575 17.1264 23.2283 14.9362 23.2299" fill="#EFEFEF"/>
</g>
<defs>
<clipPath id="clip0_127_200">
<rect width="30" height="30" fill="white" transform="translate(0 0.5)"/>
</clipPath>
</defs>
</svg>
