<svg width="30" height="31" viewBox="0 0 30 31" fill="none" xmlns="http://www.w3.org/2000/svg">
<path d="M24.05 4.25H5.95C5.36652 4.25 4.80694 4.48178 4.39436 4.89436C3.98178 5.30694 3.75 5.86652 3.75 6.45V24.55C3.75 25.1335 3.98178 25.6931 4.39436 26.1056C4.80694 26.5182 5.36652 26.75 5.95 26.75H24.05C24.3389 26.75 24.625 26.6931 24.8919 26.5825C25.1588 26.472 25.4013 26.3099 25.6056 26.1056C25.8099 25.9013 25.972 25.6588 26.0825 25.3919C26.1931 25.125 26.25 24.8389 26.25 24.55V6.45C26.25 6.16109 26.1931 5.87501 26.0825 5.6081C25.972 5.34118 25.8099 5.09865 25.6056 4.89436C25.4013 4.69008 25.1588 4.52803 24.8919 4.41746C24.625 4.3069 24.3389 4.25 24.05 4.25ZM16.8 16.75H13.9875V24.8H11.75V16.75H8.9375V14.925H16.8V16.75ZM24.05 23.35C23.8697 23.7352 23.5779 24.0574 23.2125 24.275C22.8285 24.5113 22.4051 24.6765 21.9625 24.7625C21.4688 24.8627 20.9663 24.913 20.4625 24.9125C19.947 24.9121 19.4324 24.866 18.925 24.775C18.4936 24.6869 18.0741 24.5484 17.675 24.3625V22.225L17.6 22.15H17.675V22.2375C18.0508 22.531 18.4734 22.7592 18.925 22.9125C19.3762 23.083 19.8552 23.1678 20.3375 23.1625C20.5896 23.1667 20.8413 23.1415 21.0875 23.0875C21.2723 23.0437 21.4493 22.972 21.6125 22.875C21.7401 22.7972 21.8472 22.6901 21.925 22.5625C22.002 22.4172 22.0358 22.2529 22.0225 22.0891C22.0092 21.9252 21.9494 21.7685 21.85 21.6375C21.7335 21.4719 21.5847 21.3316 21.4125 21.225C21.205 21.0779 20.983 20.9522 20.75 20.85L19.9125 20.5C19.2503 20.2257 18.6631 19.7971 18.2 19.25C17.8133 18.7838 17.6089 18.193 17.625 17.5875C17.6104 17.1275 17.7137 16.6714 17.925 16.2625C18.127 15.9064 18.4095 15.6024 18.75 15.375C19.1299 15.1229 19.554 14.9448 20 14.85C20.4875 14.7365 20.9869 14.6819 21.4875 14.6875C21.9433 14.6811 22.3988 14.7104 22.85 14.775C23.2254 14.8334 23.594 14.9298 23.95 15.0625V17.125C23.7855 17.0076 23.6097 16.9071 23.425 16.825C23.2256 16.741 23.021 16.67 22.8125 16.6125C22.6122 16.5539 22.4073 16.512 22.2 16.4875C22.0087 16.4698 21.8163 16.4698 21.625 16.4875C21.3895 16.4837 21.1544 16.5089 20.925 16.5625C20.7366 16.6012 20.5553 16.6687 20.3875 16.7625C20.2568 16.8406 20.1456 16.9475 20.0625 17.075C19.9877 17.1995 19.9487 17.3423 19.95 17.4875C19.9454 17.6428 19.989 17.7956 20.075 17.925C20.1779 18.0668 20.3048 18.1895 20.45 18.2875C20.6266 18.4273 20.8197 18.5448 21.025 18.6375L21.8125 18.9875C22.1739 19.1388 22.5246 19.3142 22.8625 19.5125C23.1583 19.6755 23.428 19.882 23.6625 20.125C23.8914 20.3473 24.0703 20.6157 24.1875 20.9125C24.3069 21.2539 24.3661 21.6134 24.3625 21.975C24.3528 22.4418 24.2464 22.9015 24.05 23.325V23.35Z" fill="#EFEFEF"/>
</svg>
