<svg width="53" height="53" viewBox="0 0 53 53" fill="none" xmlns="http://www.w3.org/2000/svg">
<mask id="mask0_843_138" style="mask-type:luminance" maskUnits="userSpaceOnUse" x="3" y="3" width="45" height="45">
<path fill-rule="evenodd" clip-rule="evenodd" d="M4.19544 46.6644C4.15383 46.8141 4.15244 46.9722 4.19143 47.1226C4.23041 47.273 4.30837 47.4105 4.41746 47.5211C4.52655 47.6318 4.66289 47.7117 4.81273 47.7528C4.96258 47.7939 5.12061 47.7948 5.2709 47.7553L15.4447 45.0965C18.6726 46.8449 22.2854 47.761 25.9564 47.762H25.9652C38.0801 47.762 47.9558 37.9437 47.9558 25.8729C47.9632 22.9945 47.3981 20.1433 46.2934 17.4853C45.1886 14.8272 43.5662 12.4155 41.5207 10.3903C39.4786 8.34852 37.053 6.73061 34.3834 5.62965C31.7138 4.52868 28.8529 3.96639 25.9652 3.97511C13.8503 3.97511 3.97461 13.7934 3.97461 25.8619C3.97461 29.7022 4.98603 33.474 6.91169 36.802L4.19544 46.6644ZM18.9957 15.3922C19.3998 15.4032 19.8481 15.4253 20.2743 16.3705C20.557 16.9999 21.0318 18.1592 21.4204 19.1044C21.723 19.8398 21.9703 20.4449 22.0321 20.5685C22.1757 20.8512 22.2618 21.1758 22.0763 21.5579L22.0145 21.6859C21.8643 21.9951 21.7583 22.2159 21.5066 22.503L21.1908 22.8784C21.0031 23.1081 20.8154 23.3334 20.6564 23.4924C20.3715 23.775 20.0778 24.0798 20.4046 24.6451C20.7314 25.2104 21.8798 27.0699 23.5736 28.5693C24.8124 29.6867 26.2339 30.583 27.776 31.2193C27.9306 31.2856 28.0557 31.3415 28.1514 31.3872C28.719 31.6698 29.0569 31.6257 29.3837 31.2458C29.7127 30.8638 30.8036 29.5918 31.1879 29.0264C31.5589 28.4611 31.9387 28.5494 32.4643 28.7438C32.9899 28.9403 35.7856 30.3117 36.3532 30.5922L36.669 30.7467C37.0643 30.9344 37.3315 31.0647 37.4463 31.2547C37.5876 31.4954 37.5876 32.6238 37.1195 33.9532C36.6381 35.2782 34.3215 36.5502 33.2726 36.6474L32.9744 36.6827C32.0116 36.7976 30.7926 36.9477 26.4466 35.2363C21.0892 33.1295 17.5536 27.9046 16.8404 26.8468L16.7233 26.679L16.7123 26.6613C16.3854 26.2263 14.3957 23.5652 14.3957 20.8181C14.3957 18.1902 15.692 16.821 16.2816 16.1982L16.3854 16.0878C16.5763 15.8722 16.8095 15.6982 17.0705 15.5766C17.3315 15.4551 17.6147 15.3885 17.9026 15.3812C18.2846 15.3812 18.6689 15.3812 18.9957 15.3922Z" fill="white"/>
</mask>
<g mask="url(#mask0_843_138)">
<path fill-rule="evenodd" clip-rule="evenodd" d="M4.19544 46.6644C4.15383 46.8141 4.15244 46.9722 4.19143 47.1226C4.23041 47.273 4.30837 47.4105 4.41746 47.5211C4.52655 47.6318 4.66289 47.7117 4.81273 47.7528C4.96258 47.7939 5.12061 47.7948 5.2709 47.7553L15.4447 45.0965C18.6726 46.8449 22.2854 47.761 25.9564 47.762H25.9652C38.0801 47.762 47.9558 37.9437 47.9558 25.8729C47.9632 22.9945 47.3981 20.1433 46.2934 17.4853C45.1886 14.8272 43.5662 12.4155 41.5207 10.3903C39.4786 8.34852 37.053 6.73061 34.3834 5.62965C31.7138 4.52868 28.8529 3.96639 25.9652 3.97511C13.8503 3.97511 3.97461 13.7934 3.97461 25.8619C3.97461 29.7022 4.98603 33.474 6.91169 36.802L4.19544 46.6644ZM18.9957 15.3922C19.3998 15.4032 19.8481 15.4253 20.2743 16.3705C20.557 16.9999 21.0318 18.1592 21.4204 19.1044C21.723 19.8398 21.9703 20.4449 22.0321 20.5685C22.1757 20.8512 22.2618 21.1758 22.0763 21.5579L22.0145 21.6859C21.8643 21.9951 21.7583 22.2159 21.5066 22.503L21.1908 22.8784C21.0031 23.1081 20.8154 23.3334 20.6564 23.4924C20.3715 23.775 20.0778 24.0798 20.4046 24.6451C20.7314 25.2104 21.8798 27.0699 23.5736 28.5693C24.8124 29.6867 26.2339 30.583 27.776 31.2193C27.9306 31.2856 28.0557 31.3415 28.1514 31.3872C28.719 31.6698 29.0569 31.6257 29.3837 31.2458C29.7127 30.8638 30.8036 29.5918 31.1879 29.0264C31.5589 28.4611 31.9387 28.5494 32.4643 28.7438C32.9899 28.9403 35.7856 30.3117 36.3532 30.5922L36.669 30.7467C37.0643 30.9344 37.3315 31.0647 37.4463 31.2547C37.5876 31.4954 37.5876 32.6238 37.1195 33.9532C36.6381 35.2782 34.3215 36.5502 33.2726 36.6474L32.9744 36.6827C32.0116 36.7976 30.7926 36.9477 26.4466 35.2363C21.0892 33.1295 17.5536 27.9046 16.8404 26.8468L16.7233 26.679L16.7123 26.6613C16.3854 26.2263 14.3957 23.5652 14.3957 20.8181C14.3957 18.1902 15.692 16.821 16.2816 16.1982L16.3854 16.0878C16.5763 15.8722 16.8095 15.6982 17.0705 15.5766C17.3315 15.4551 17.6147 15.3885 17.9026 15.3812C18.2846 15.3812 18.6689 15.3812 18.9957 15.3922Z" fill="#06080A" stroke="#06080A" stroke-linejoin="round"/>
</g>
</svg>
