<svg width="32" height="32" viewBox="0 0 32 32" fill="none" xmlns="http://www.w3.org/2000/svg">
<path d="M13.2837 11.4046C13.3209 11.3842 13.3625 11.3735 13.4048 11.3735C13.4472 11.3735 13.4888 11.3842 13.5259 11.4046L21.5472 16.0546C21.5838 16.0759 21.6141 16.1064 21.6352 16.1431C21.6563 16.1799 21.6674 16.2215 21.6674 16.2638C21.6674 16.3062 21.6563 16.3478 21.6352 16.3845C21.6141 16.4212 21.5838 16.4517 21.5472 16.4731L13.5259 21.1231C13.4891 21.1445 13.4473 21.1559 13.4047 21.1561C13.3621 21.1562 13.3202 21.1451 13.2832 21.1239C13.2463 21.1027 13.2156 21.0721 13.1942 21.0352C13.1729 20.9983 13.1617 20.9564 13.1617 20.9138V11.6138C13.1617 11.5286 13.2082 11.4472 13.2837 11.4046Z" fill="#06080A" fill-opacity="0.8"/>
<path fill-rule="evenodd" clip-rule="evenodd" d="M22.8938 4.85582C25.2188 4.95464 27.505 5.12707 28.5125 5.42157C29.1693 5.61145 29.768 5.98345 30.2504 6.49882C30.7309 7.0142 31.0797 7.65551 31.256 8.35882C32.279 12.7763 32.0426 19.7513 31.2754 24.3238C31.1017 25.0184 30.7559 25.6581 30.2698 26.1838C29.7974 26.692 29.1972 27.0641 28.5319 27.2611C26.265 27.9218 17.585 27.9605 16.5388 27.9644L15.4964 27.9605C13.9137 27.9478 12.3313 27.9136 10.7495 27.8578L10.1489 27.8346L9.57538 27.8094C7.40538 27.7086 5.31288 27.5381 4.36351 27.263C3.6982 27.066 3.09799 26.694 2.62557 26.1858C2.13949 25.6601 1.79366 25.0204 1.62001 24.3258C0.589257 19.9276 0.872132 12.9526 1.60063 8.38014C1.77428 7.68552 2.12011 7.04584 2.60619 6.52014C3.08669 6.00476 3.68732 5.63276 4.34413 5.44289C6.45601 4.8287 14.1091 4.7357 16.0079 4.7202L16.4787 4.71826L17.3215 4.72214C18.4453 4.73182 20.499 4.75895 22.5721 4.84226L22.9015 4.85582H22.8938ZM28.8419 7.8202C29.0899 8.08564 29.2798 8.42664 29.3805 8.81607C30.3144 12.8654 30.1187 19.4723 29.3863 23.9092C29.2836 24.2773 29.0976 24.6009 28.8632 24.8566C28.6289 25.1097 28.3312 25.2957 28.001 25.3953H27.9971C27.6406 25.4999 26.8559 25.6161 25.6915 25.715C24.5871 25.808 23.289 25.8719 22.0103 25.9203C19.4721 26.0114 17.0696 26.0211 16.5465 26.023L15.5196 26.0172H15.5119C13.9486 26.0054 12.3855 25.9718 10.8231 25.9165L10.2341 25.8951L9.66644 25.87C8.59501 25.8196 7.57201 25.7537 6.70013 25.6704C5.79338 25.5813 5.19276 25.4825 4.90601 25.3991H4.90019C4.57047 25.2987 4.2735 25.1121 4.03994 24.8586C3.77983 24.5752 3.59409 24.2317 3.49938 23.8588C2.56357 19.8482 2.79801 13.2413 3.49551 8.7657C3.60013 8.39951 3.78613 8.07789 4.01863 7.82601C4.25243 7.57322 4.54936 7.3873 4.87888 7.28739H4.88276C5.20826 7.19051 5.91157 7.08201 6.95588 6.98707C7.95563 6.89601 9.12588 6.82626 10.3271 6.77782C12.2186 6.70214 14.1111 6.65693 16.004 6.6422H16.4651L17.2944 6.64607H17.2963C18.4143 6.65382 20.4351 6.68095 22.4694 6.76232L22.7988 6.77589C23.9419 6.82432 25.0657 6.89214 25.9957 6.97932C26.9838 7.07232 27.6426 7.17695 27.9526 7.26607C28.2823 7.36653 28.5812 7.55314 28.8148 7.80664L28.8419 7.8202Z" fill="#06080A" fill-opacity="0.8"/>
</svg>
