<svg width="50" height="53" viewBox="0 0 50 53" fill="none" xmlns="http://www.w3.org/2000/svg">
<rect y="0.5" width="50" height="52" rx="12" fill="#06080A" fill-opacity="0.6"/>
<path d="M24.2929 37.2071C24.6834 37.5976 25.3166 37.5976 25.7071 37.2071L32.0711 30.8431C32.4616 30.4526 32.4616 29.8195 32.0711 29.4289C31.6805 29.0384 31.0474 29.0384 30.6569 29.4289L25 35.0858L19.3431 29.4289C18.9526 29.0384 18.3195 29.0384 17.9289 29.4289C17.5384 29.8195 17.5384 30.4526 17.9289 30.8431L24.2929 37.2071ZM26 16.5C26 15.9477 25.5523 15.5 25 15.5C24.4477 15.5 24 15.9477 24 16.5H26ZM26 36.5L26 16.5H24L24 36.5H26Z" fill="#EFEFEF"/>
</svg>
