<svg width="60" height="50" viewBox="0 0 60 50" fill="none" xmlns="http://www.w3.org/2000/svg">
<rect x="60" y="49.3205" width="60" height="49.3205" rx="12" transform="rotate(180 60 49.3205)" fill="#06080A" fill-opacity="0.6"/>
<path d="M35.9659 15.7412C35.823 15.2077 35.2746 14.8911 34.7412 15.0341L26.0478 17.3634C25.5144 17.5064 25.1978 18.0547 25.3407 18.5882C25.4837 19.1217 26.032 19.4382 26.5655 19.2953L34.2929 17.2247L36.3634 24.9522C36.5064 25.4856 37.0547 25.8022 37.5882 25.6593C38.1217 25.5163 38.4382 24.968 38.2953 24.4345L35.9659 15.7412ZM24.134 32.8205C23.8578 33.2988 24.0217 33.9104 24.5 34.1865C24.9783 34.4627 25.5899 34.2988 25.866 33.8205L25 33.3205L24.134 32.8205ZM35 16L34.134 15.5L24.134 32.8205L25 33.3205L25.866 33.8205L35.866 16.5L35 16Z" fill="#EFEFEF"/>
</svg>
