<svg width="200" height="200" viewBox="0 0 200 200" fill="none" xmlns="http://www.w3.org/2000/svg">
<path d="M101.505 26.0709L102.391 13.3746L103.929 13.482L103.137 24.8144L109.039 25.2266L108.944 26.5905L101.505 26.0709Z" fill="#06080A"/>
<path d="M111.691 27.0034L114.382 14.564L121.89 16.1884L121.6 17.5246L115.599 16.2262L114.69 20.4293L120.302 21.6437L120.013 22.98L114.401 21.7656L113.486 25.9931L119.584 27.3126L119.295 28.6488L111.691 27.0034Z" fill="#06080A"/>
<path d="M134.728 27.6132C134.226 28.8582 133.568 29.8437 132.753 30.5694C131.938 31.2951 131.04 31.746 130.057 31.922C129.075 32.0981 128.081 31.9832 127.074 31.5776C126.067 31.1719 125.271 30.5652 124.685 29.7575C124.099 28.9498 123.764 28.0019 123.68 26.9138C123.596 25.8258 123.805 24.6592 124.306 23.4141C124.808 22.1691 125.466 21.1837 126.281 20.4579C127.096 19.7322 127.995 19.2813 128.977 19.1053C129.959 18.9292 130.954 19.0441 131.961 19.4497C132.967 19.8554 133.764 20.4621 134.349 21.2698C134.935 22.0776 135.27 23.0254 135.354 24.1135C135.439 25.2016 135.23 26.3681 134.728 27.6132ZM133.345 27.0558C133.757 26.0336 133.933 25.102 133.875 24.261C133.82 23.4215 133.575 22.7042 133.14 22.1092C132.709 21.5157 132.136 21.075 131.422 20.787C130.707 20.499 129.987 20.4187 129.261 20.5462C128.539 20.6751 127.865 21.0223 127.24 21.5878C126.618 22.1548 126.102 22.9493 125.69 23.9715C125.278 24.9937 125.1 25.9245 125.154 26.764C125.213 27.6051 125.458 28.3223 125.889 28.9158C126.323 29.5108 126.898 29.9523 127.613 30.2403C128.328 30.5283 129.046 30.6078 129.768 30.4788C130.494 30.3514 131.167 30.0042 131.789 29.4372C132.414 28.8718 132.933 28.078 133.345 27.0558Z" fill="#06080A"/>
<path d="M150.501 29.757L143.623 40.4658L142.368 39.6598L141.933 27.5038L141.829 27.4366L136.428 35.8447L135.132 35.0118L142.009 24.303L143.264 25.109L143.707 37.2994L143.812 37.3665L149.225 28.9376L150.501 29.757Z" fill="#06080A"/>
<path d="M146.797 43.0477L145.613 41.9483L157.698 35.8013L158.864 36.8838L153.628 49.3904L152.444 48.291L156.947 37.8519L156.874 37.7843L146.797 43.0477ZM150.617 39.8103L155.39 44.2418L154.46 45.2437L149.687 40.8122L150.617 39.8103Z" fill="#06080A"/>
<path d="M155.358 51.4334L165.421 43.6415L168.054 47.0418C168.663 47.828 169.028 48.5773 169.15 49.2898C169.275 49.9997 169.199 50.656 168.922 51.2586C168.644 51.8611 168.209 52.392 167.616 52.8511C167.023 53.3102 166.404 53.5961 165.757 53.7087C165.111 53.8214 164.463 53.7286 163.813 53.4304C163.166 53.1295 162.54 52.5893 161.937 51.8097L159.806 49.058L160.907 48.2057L163.007 50.9181C163.423 51.4553 163.836 51.8269 164.247 52.0327C164.661 52.2418 165.069 52.3085 165.471 52.2327C165.879 52.1576 166.285 51.9641 166.688 51.6521C167.091 51.3401 167.384 50.9921 167.569 50.6081C167.754 50.2241 167.8 49.8032 167.708 49.3455C167.619 48.8853 167.363 48.3833 166.942 47.8395L165.284 45.6971L156.301 52.652L155.358 51.4334ZM163.546 52.67L160.943 58.6468L159.847 57.2316L162.481 51.2941L163.546 52.67Z" fill="#06080A"/>
<path d="M164.182 64.291L162.331 60.8269L173.556 54.8292L175.489 58.4468C176.071 59.5358 176.344 60.5876 176.309 61.6024C176.277 62.6153 175.953 63.5517 175.336 64.4118C174.724 65.2698 173.837 66.0093 172.675 66.6301C171.505 67.2549 170.387 67.5845 169.321 67.6189C168.258 67.6514 167.287 67.3904 166.408 66.8359C165.533 66.2794 164.791 65.4311 164.182 64.291ZM164.263 61.542L165.341 63.5591C165.837 64.4872 166.427 65.1607 167.111 65.5796C167.795 65.9985 168.548 66.1811 169.369 66.1274C170.191 66.0736 171.058 65.8027 171.972 65.3146C172.878 64.8305 173.579 64.2656 174.075 63.6202C174.575 62.9728 174.843 62.2612 174.879 61.4854C174.919 60.7077 174.705 59.8804 174.236 59.0034L173.077 56.8329L164.263 61.542Z" fill="#06080A"/>
<path d="M177.555 80.8442C176.275 81.2491 175.096 81.3679 174.018 81.2006C172.94 81.0334 172.02 80.6268 171.26 79.9809C170.499 79.3351 169.955 78.4947 169.628 77.4598C169.3 76.4249 169.262 75.4245 169.513 74.4588C169.763 73.493 170.282 72.6316 171.068 71.8745C171.854 71.1175 172.887 70.5365 174.166 70.1317C175.446 69.7268 176.625 69.608 177.704 69.7752C178.782 69.9425 179.702 70.3491 180.462 70.9949C181.223 71.6408 181.767 72.4812 182.094 73.5161C182.421 74.551 182.46 75.5513 182.209 76.5171C181.958 77.4829 181.44 78.3443 180.654 79.1013C179.868 79.8584 178.835 80.4393 177.555 80.8442ZM177.105 79.4222C178.156 79.0898 178.987 78.6335 179.599 78.0533C180.212 77.477 180.61 76.8319 180.792 76.118C180.976 75.408 180.952 74.6857 180.719 73.9509C180.487 73.2162 180.091 72.6094 179.531 72.1304C178.972 71.6553 178.276 71.3564 177.442 71.2335C176.609 71.1146 175.667 71.2213 174.616 71.5537C173.566 71.8861 172.734 72.3404 172.121 72.9167C171.509 73.4969 171.111 74.142 170.928 74.852C170.745 75.5659 170.77 76.2902 171.002 77.0249C171.235 77.7596 171.63 78.3645 172.189 78.8396C172.749 79.3185 173.445 79.6175 174.278 79.7364C175.112 79.8593 176.055 79.7546 177.105 79.4222Z" fill="#06080A"/>
<path d="M172.784 90.8514L185.48 89.9708L186.008 97.5839L184.644 97.6785L184.223 91.6029L179.933 91.9005L180.315 97.4057L178.951 97.5003L178.569 91.9951L172.89 92.3889L172.784 90.8514Z" fill="#06080A"/>
<path d="M173.278 101.695L185.967 102.682L185.371 110.34L184.008 110.234L184.484 104.113L180.196 103.779L179.751 109.504L178.388 109.398L178.833 103.673L174.521 103.338L174.037 109.558L172.674 109.452L173.278 101.695Z" fill="#06080A"/>
<path d="M172.2 112.528L184.59 115.441L183.606 119.627C183.378 120.595 183.026 121.351 182.549 121.894C182.077 122.438 181.519 122.793 180.876 122.956C180.233 123.12 179.547 123.116 178.817 122.945C178.087 122.773 177.474 122.472 176.98 122.041C176.486 121.609 176.149 121.047 175.972 120.354C175.798 119.662 175.824 118.837 176.05 117.877L176.846 114.489L178.202 114.807L177.417 118.147C177.261 118.808 177.233 119.363 177.331 119.812C177.429 120.265 177.634 120.624 177.947 120.889C178.262 121.159 178.668 121.352 179.164 121.469C179.66 121.585 180.115 121.594 180.53 121.496C180.944 121.398 181.3 121.169 181.598 120.809C181.899 120.45 182.129 119.935 182.286 119.266L182.906 116.628L171.847 114.029L172.2 112.528ZM176.395 119.669L170.112 121.409L170.522 119.667L176.793 117.975L176.395 119.669Z" fill="#06080A"/>
<path d="M169.258 123.823L181.026 128.671L179.388 132.647C179.009 133.567 178.541 134.256 177.984 134.717C177.431 135.179 176.824 135.44 176.163 135.499C175.502 135.559 174.825 135.446 174.132 135.16C173.439 134.874 172.882 134.479 172.463 133.975C172.043 133.471 171.801 132.862 171.736 132.15C171.675 131.439 171.832 130.628 172.207 129.716L173.533 126.498L174.82 127.029L173.513 130.2C173.255 130.829 173.138 131.372 173.164 131.831C173.189 132.294 173.334 132.681 173.6 132.992C173.868 133.308 174.238 133.564 174.709 133.758C175.181 133.952 175.629 134.034 176.054 134.002C176.479 133.971 176.867 133.802 177.218 133.494C177.572 133.187 177.881 132.716 178.143 132.08L179.175 129.575L168.671 125.248L169.258 123.823ZM172.262 131.54L165.783 132.258L166.465 130.604L172.925 129.931L172.262 131.54Z" fill="#06080A"/>
<path d="M164.535 134.501L175.418 141.1L171.436 147.668L170.267 146.959L173.45 141.709L169.773 139.479L166.796 144.389L165.627 143.681L168.604 138.77L164.905 136.528L161.67 141.863L160.501 141.154L164.535 134.501Z" fill="#06080A"/>
<path d="M167.838 152.498L157.722 144.774L158.657 143.549L168.773 151.273L167.838 152.498Z" fill="#06080A"/>
<path d="M155.621 147.516L164.811 156.321L161.836 159.427C161.148 160.145 160.461 160.616 159.774 160.842C159.09 161.071 158.43 161.092 157.793 160.906C157.156 160.721 156.567 160.369 156.026 159.85C155.484 159.331 155.11 158.76 154.903 158.138C154.697 157.515 154.693 156.86 154.892 156.173C155.094 155.489 155.537 154.791 156.219 154.079L158.626 151.566L159.631 152.529L157.258 155.006C156.788 155.497 156.482 155.96 156.339 156.397C156.193 156.837 156.187 157.25 156.321 157.637C156.456 158.03 156.707 158.402 157.075 158.755C157.443 159.107 157.83 159.347 158.237 159.473C158.644 159.599 159.067 159.582 159.506 159.424C159.949 159.268 160.407 158.941 160.883 158.445L162.758 156.488L154.555 148.629L155.621 147.516ZM155.605 155.797L149.31 154.104L150.548 152.811L156.809 154.541L155.605 155.797Z" fill="#06080A"/>
<path d="M146.934 156.094L148.227 155.125L152.12 168.112L150.847 169.066L139.475 161.684L140.768 160.715L150.236 167.008L150.316 166.948L146.934 156.094ZM149.438 160.43L144.227 164.336L143.407 163.242L148.618 159.336L149.438 160.43Z" fill="#06080A"/>
<path d="M130.471 173.161L129.899 171.919L134.957 169.59L135.529 170.831L130.471 173.161Z" fill="#06080A"/>
<path d="M115.481 181.227C115.694 181.824 116.098 182.234 116.693 182.455C117.287 182.676 117.96 182.7 118.711 182.528C119.261 182.403 119.721 182.204 120.092 181.932C120.459 181.661 120.723 181.344 120.882 180.98C121.037 180.617 121.069 180.238 120.978 179.842C120.903 179.511 120.759 179.244 120.547 179.042C120.332 178.845 120.081 178.696 119.794 178.596C119.509 178.5 119.217 178.432 118.92 178.394C118.623 178.36 118.352 178.339 118.108 178.331L116.771 178.28C116.428 178.269 116.042 178.234 115.612 178.176C115.178 178.118 114.75 178.001 114.327 177.826C113.901 177.655 113.524 177.397 113.194 177.052C112.864 176.707 112.633 176.243 112.5 175.662C112.346 174.991 112.383 174.345 112.611 173.724C112.834 173.103 113.245 172.557 113.842 172.084C114.436 171.613 115.209 171.268 116.162 171.05C117.051 170.847 117.853 170.814 118.569 170.952C119.28 171.091 119.881 171.374 120.37 171.802C120.855 172.231 121.199 172.779 121.402 173.447L119.852 173.802C119.704 173.342 119.458 172.991 119.113 172.746C118.765 172.507 118.362 172.362 117.904 172.309C117.442 172.262 116.965 172.294 116.473 172.407C115.899 172.538 115.405 172.749 114.992 173.039C114.579 173.333 114.277 173.678 114.087 174.075C113.898 174.475 113.856 174.901 113.959 175.353C114.053 175.765 114.245 176.074 114.534 176.28C114.824 176.486 115.175 176.627 115.587 176.702C116 176.778 116.438 176.826 116.902 176.848L118.528 176.935C119.561 176.992 120.42 177.214 121.103 177.602C121.787 177.989 122.224 178.601 122.416 179.437C122.575 180.132 122.525 180.78 122.268 181.383C122.008 181.991 121.591 182.511 121.019 182.944C120.443 183.382 119.759 183.691 118.968 183.872C118.168 184.055 117.424 184.074 116.737 183.93C116.05 183.789 115.469 183.514 114.993 183.105C114.512 182.696 114.191 182.181 114.027 181.56L115.481 181.227Z" fill="#06080A"/>
<path d="M98.3326 179.672C98.263 178.332 98.4449 177.161 98.8783 176.159C99.3117 175.158 99.9366 174.37 100.753 173.797C101.57 173.223 102.52 172.909 103.604 172.852C104.688 172.796 105.666 173.011 106.537 173.497C107.409 173.982 108.112 174.701 108.647 175.652C109.181 176.603 109.484 177.749 109.553 179.09C109.623 180.43 109.441 181.601 109.008 182.603C108.574 183.605 107.949 184.392 107.133 184.965C106.316 185.539 105.366 185.854 104.282 185.91C103.198 185.966 102.22 185.751 101.349 185.266C100.477 184.78 99.7738 184.061 99.2391 183.11C98.7043 182.159 98.4021 181.013 98.3326 179.672ZM99.822 179.595C99.8792 180.696 100.111 181.615 100.519 182.353C100.922 183.091 101.447 183.639 102.092 183.995C102.732 184.352 103.438 184.51 104.207 184.47C104.977 184.43 105.664 184.2 106.268 183.778C106.869 183.357 107.333 182.758 107.662 181.982C107.987 181.206 108.121 180.268 108.064 179.167C108.007 178.067 107.776 177.147 107.373 176.409C106.965 175.671 106.441 175.124 105.8 174.767C105.156 174.41 104.448 174.252 103.679 174.292C102.909 174.332 102.224 174.563 101.624 174.984C101.019 175.405 100.555 176.004 100.23 176.78C99.9008 177.556 99.7649 178.494 99.822 179.595Z" fill="#06080A"/>
<path d="M94.7882 173.055L93.3269 185.698L85.746 184.821L85.9029 183.463L91.9529 184.163L92.4466 179.891L86.9646 179.257L87.1216 177.899L92.6036 178.532L93.2572 172.878L94.7882 173.055Z" fill="#06080A"/>
<path d="M81.8386 182.739L81.4767 184.057L72.2718 181.531L72.6336 180.212L76.493 181.272L79.5 170.317L80.9862 170.725L77.9793 181.68L81.8386 182.739Z" fill="#06080A"/>
<path d="M70.7332 167.329L68.1589 180.27L66.7579 179.57L69.0108 169.108L68.8996 169.053L61.8434 177.115L60.2867 176.337L62.4951 165.853L62.3839 165.798L55.3722 173.882L53.9712 173.183L62.7721 163.352L64.1953 164.063L62.1759 174.391L62.2648 174.436L69.31 166.618L70.7332 167.329Z" fill="#06080A"/>
<path d="M57.6552 160.044L58.9288 161.038L47.4131 168.194L46.1591 167.215L50.3075 154.307L51.5811 155.302L47.986 166.087L48.0644 166.148L57.6552 160.044ZM54.1256 163.595L48.992 159.588L49.8333 158.51L54.9669 162.518L54.1256 163.595Z" fill="#06080A"/>
<path d="M48.4106 152.419L39.0495 161.042L36.1359 157.879C35.4623 157.148 35.0342 156.432 34.8519 155.733C34.6664 155.036 34.6862 154.376 34.9112 153.752C35.1362 153.128 35.5245 152.562 36.076 152.054C36.6276 151.546 37.2205 151.208 37.8549 151.04C38.4892 150.873 39.143 150.91 39.8162 151.152C40.4864 151.396 41.1555 151.881 41.8235 152.606L44.1813 155.166L43.1574 156.109L40.8333 153.586C40.373 153.086 39.9294 152.751 39.5024 152.581C39.0726 152.408 38.6605 152.377 38.2661 152.487C37.8657 152.596 37.4782 152.824 37.1034 153.169C36.7285 153.514 36.4655 153.886 36.3143 154.284C36.1631 154.683 36.153 155.106 36.2842 155.554C36.4122 156.005 36.7093 156.483 37.1752 156.989L39.0109 158.982L47.3665 151.286L48.4106 152.419ZM40.1467 151.886L42.2299 145.709L43.4424 147.026L41.3256 153.166L40.1467 151.886Z" fill="#06080A"/>
<path d="M40.7257 143.641L30.1596 150.736L25.8775 144.36L27.0126 143.597L30.4354 148.695L34.0056 146.297L30.8045 141.53L31.9395 140.768L35.1406 145.535L38.7315 143.124L35.2532 137.944L36.3882 137.182L40.7257 143.641Z" fill="#06080A"/>
<path d="M30.6699 125.164L18.524 128.967L16.229 121.636L17.5338 121.228L19.3682 127.087L23.4722 125.802L21.7566 120.323L23.0613 119.914L24.777 125.394L28.9047 124.102L27.0405 118.147L28.3452 117.739L30.6699 125.164Z" fill="#06080A"/>
<path d="M13.5987 106.372L26.2093 104.652L26.4108 106.13L17.4465 114.352L17.4633 114.475L27.3646 113.125L27.5728 114.652L14.9622 116.372L14.7607 114.894L23.7463 106.644L23.7295 106.521L13.8036 107.874L13.5987 106.372Z" fill="#06080A"/>
<path d="M17.7457 91.8247C17.321 91.9407 16.9377 92.1023 16.5957 92.3094C16.2497 92.5123 15.9512 92.761 15.7003 93.0556C15.4496 93.3461 15.2527 93.6806 15.1096 94.0594C14.9665 94.4381 14.8837 94.8571 14.8611 95.3164C14.8241 96.0696 14.9849 96.764 15.3435 97.3997C15.7021 98.0353 16.2511 98.5539 16.9905 98.9553C17.7298 99.3567 18.6498 99.5845 19.7505 99.6386C20.8512 99.6928 21.7893 99.5543 22.5646 99.2233C23.34 98.8923 23.9376 98.4218 24.3576 97.812C24.7775 97.2022 25.0068 96.5041 25.0454 95.7179C25.0813 94.9896 24.9577 94.3406 24.6746 93.7709C24.3876 93.1968 23.9662 92.7405 23.4104 92.402C22.8507 92.0593 22.1819 91.8687 21.4039 91.8305L21.5265 91.3636L21.3384 95.1871L19.9728 95.1199L20.211 90.2785L21.5765 90.3457C22.6235 90.3972 23.5228 90.6654 24.2746 91.1504C25.0267 91.6312 25.5965 92.2732 25.9843 93.0762C26.3681 93.8749 26.5351 94.7791 26.4855 95.7888C26.4301 96.9143 26.1166 97.8903 25.545 98.7166C24.9736 99.5388 24.1879 100.164 23.188 100.592C22.1882 101.015 21.0179 101.194 19.6772 101.128C18.6717 101.079 17.7742 100.9 16.9846 100.591C16.1912 100.279 15.5232 99.86 14.9807 99.3355C14.4382 98.8111 14.0327 98.2021 13.764 97.5086C13.4953 96.8151 13.381 96.0608 13.4211 95.2456C13.4541 94.5752 13.5862 93.9554 13.8175 93.386C14.0448 92.8124 14.3538 92.307 14.7445 91.8699C15.1312 91.4285 15.5866 91.0672 16.1106 90.7861C16.6305 90.5047 17.2016 90.3212 17.8239 90.2357L17.7457 91.8247Z" fill="#06080A"/>
<path d="M14.9142 83.91L27.4498 86.1111L27.1832 87.629L14.6477 85.428L14.9142 83.91Z" fill="#06080A"/>
<path d="M18.843 69.2288L30.9984 73.0011L30.5563 74.4256L18.9568 78.0875L18.92 78.2062L28.4638 81.168L28.007 82.64L15.8516 78.8677L16.2937 77.4432L27.9243 73.765L27.9611 73.6462L18.3935 70.677L18.843 69.2288Z" fill="#06080A"/>
<path d="M32.4258 69.7746L21.0723 64.0229L24.5435 57.1709L25.7631 57.7888L22.9884 63.266L26.8246 65.2094L29.4196 60.087L30.6392 60.7049L28.0442 65.8273L31.9027 67.7819L34.7223 62.2161L35.9419 62.8339L32.4258 69.7746Z" fill="#06080A"/>
<path d="M37.5797 60.1709L27.2005 52.8051L31.6458 46.541L32.7608 47.3323L29.2074 52.3395L32.7144 54.8283L36.0377 50.1455L37.1526 50.9367L33.8294 55.6195L37.3567 58.1228L40.9677 53.0345L42.0826 53.8258L37.5797 60.1709Z" fill="#06080A"/>
<path d="M44.0969 51.4001L34.9603 42.5398L37.9542 39.4526C38.6464 38.7388 39.3365 38.2712 40.0246 38.0497C40.7096 37.8253 41.3701 37.8078 42.0058 37.9973C42.6416 38.1867 43.2286 38.5425 43.767 39.0645C44.3053 39.5866 44.6759 40.1596 44.8789 40.7834C45.0818 41.4073 45.0816 42.0621 44.8782 42.7479C44.6719 43.4308 44.2255 44.1262 43.5391 44.8341L41.1163 47.3323L40.117 46.3632L42.5052 43.9006C42.9782 43.4129 43.2875 42.9511 43.4332 42.5152C43.5817 42.0764 43.59 41.6631 43.4581 41.2755C43.3261 40.882 43.0771 40.5078 42.7113 40.1531C42.3455 39.7983 41.9594 39.5567 41.5531 39.4281C41.1469 39.2996 40.7237 39.3134 40.2837 39.4696C39.8407 39.6229 39.3798 39.9464 38.901 40.4401L37.0147 42.3852L45.1699 50.2938L44.0969 51.4001ZM44.1632 43.1193L50.448 44.8511L49.202 46.1359L42.9518 44.3684L44.1632 43.1193Z" fill="#06080A"/>
<path d="M45.4923 32.574L53.5832 42.3985L52.3935 43.3783L44.3026 33.5538L45.4923 32.574Z" fill="#06080A"/>
<path d="M57.9881 23.9848L64.7836 34.746L63.5225 35.5424L52.3229 30.7961L52.2178 30.8625L57.5533 39.3118L56.2502 40.1347L49.4547 29.3734L50.7158 28.5771L61.9497 33.3311L62.0548 33.2647L56.706 24.7944L57.9881 23.9848Z" fill="#06080A"/>
<path d="M72.8517 21.7782C72.5703 21.4397 72.2646 21.1576 71.9344 20.9319C71.6066 20.7009 71.2567 20.5322 70.8846 20.4257C70.5164 20.3176 70.1303 20.2769 69.7264 20.3034C69.3224 20.3299 68.9066 20.4279 68.4792 20.5974C67.7782 20.8754 67.2126 21.3091 66.7824 21.8987C66.3521 22.4883 66.1073 23.2027 66.0478 24.0418C65.9884 24.881 66.1618 25.8128 66.5681 26.8372C66.9743 27.8617 67.4886 28.6583 68.1108 29.2271C68.7331 29.796 69.4087 30.1453 70.1376 30.2752C70.8666 30.4051 71.5969 30.3249 72.3286 30.0347C73.0065 29.7659 73.5461 29.3848 73.9476 28.8913C74.3515 28.3924 74.5924 27.82 74.6705 27.174C74.7509 26.5226 74.6476 25.8349 74.3604 25.1109L74.8361 25.0292L71.2776 26.4404L70.7736 25.1695L75.2795 23.3826L75.7835 24.6535C76.1699 25.6278 76.298 26.5576 76.1676 27.4427C76.0411 28.3263 75.6926 29.1107 75.122 29.7961C74.5538 30.476 73.7998 31.0023 72.8601 31.375C71.8126 31.7904 70.7944 31.9089 69.8056 31.7306C68.8206 31.5507 67.9264 31.0942 67.1231 30.3609C66.3236 29.6261 65.6765 28.6348 65.1817 27.387C64.8105 26.4512 64.602 25.5601 64.556 24.7137C64.5124 23.8619 64.617 23.0805 64.8699 22.3696C65.1229 21.6588 65.5094 21.0375 66.0295 20.5059C66.5496 19.9743 67.189 19.5581 67.9477 19.2572C68.5716 19.0098 69.1905 18.8735 69.8045 18.8484C70.4209 18.8179 71.0088 18.8901 71.5684 19.0648C72.1302 19.2342 72.6476 19.4992 73.1205 19.8599C73.5918 20.2167 73.9951 20.6607 74.3305 21.1918L72.8517 21.7782Z" fill="#06080A"/>
<path d="M89.838 20.5458L90.0532 21.896L84.5545 22.7726L84.3392 21.4225L89.838 20.5458Z" fill="#06080A"/>
</svg>
