<svg width="14" height="21" viewBox="0 0 14 21" fill="none" xmlns="http://www.w3.org/2000/svg">
<path d="M13.7551 5.84583L13.6451 5.29083C13.5459 4.7925 13.3217 4.32167 12.8109 4.14167C12.6467 4.08417 12.4609 4.06 12.3359 3.94083C12.2092 3.82167 12.1726 3.63583 12.1434 3.46417C12.0892 3.14917 12.0392 2.83417 11.9834 2.52C11.9359 2.24917 11.8984 1.945 11.7751 1.6975C11.6126 1.36417 11.2776 1.16917 10.9451 1.04083C10.7743 0.97748 10.6001 0.923511 10.4234 0.879166C9.59008 0.659999 8.71508 0.579166 7.85924 0.532499C6.83154 0.476466 5.80116 0.493732 4.77591 0.584166C4.01341 0.653333 3.20924 0.737499 2.48424 1.00083C2.21924 1.0975 1.94591 1.21417 1.74424 1.41833C1.49674 1.67 1.41674 2.06 1.59674 2.37333C1.72508 2.59583 1.94258 2.75333 2.17341 2.85667C2.47341 2.99167 2.78758 3.09333 3.10924 3.16167C4.00508 3.36 4.93341 3.4375 5.84841 3.47C6.86452 3.51111 7.87841 3.47833 8.89008 3.37167C9.13952 3.34389 9.38841 3.31083 9.63674 3.2725C9.93008 3.2275 10.1184 2.845 10.0317 2.5775C9.92841 2.25833 9.65091 2.135 9.33674 2.18333C8.94841 2.245 8.53674 2.27333 8.18508 2.305C7.20341 2.37167 6.22119 2.37333 5.23841 2.31C4.91629 2.28877 4.59479 2.25904 4.27424 2.22083C4.20258 2.2125 4.12424 2.2 4.05924 2.19083C3.85702 2.16028 3.65591 2.12417 3.45591 2.0825C3.36341 2.06 3.36341 1.92833 3.45591 1.90583H3.46008C3.69119 1.85583 3.92396 1.815 4.15841 1.78333H4.16008C4.26924 1.77583 4.37924 1.75667 4.48841 1.74333C5.43667 1.64471 6.39058 1.6113 7.34341 1.64333C7.90508 1.65944 8.46535 1.69944 9.02424 1.76333L9.21424 1.78917C9.43647 1.8225 9.65813 1.86278 9.87924 1.91C10.2059 1.98083 10.6251 2.00417 10.7709 2.36167C10.8167 2.47583 10.8376 2.60167 10.8634 2.72083L11.1292 3.9575C11.1349 3.98402 11.135 4.01141 11.1296 4.03797C11.1242 4.06454 11.1134 4.0897 11.0978 4.1119C11.0822 4.13411 11.0623 4.15287 11.0392 4.16702C11.016 4.18117 10.9903 4.19041 10.9634 4.19417H10.9609L10.8676 4.20667C9.5567 4.37322 8.23648 4.45533 6.91508 4.4525C5.60574 4.45128 4.29782 4.36667 2.99924 4.19917C2.88258 4.185 2.75508 4.16417 2.65174 4.14917C2.38008 4.10917 2.11091 4.05917 1.84091 4.015C1.51341 3.96083 1.20091 3.98833 0.905076 4.14917C0.66341 4.2825 0.465909 4.48583 0.342576 4.73333C0.214243 4.99667 0.176743 5.28333 0.120076 5.56667C0.0625763 5.85 -0.0265903 6.15583 0.00757634 6.44667C0.0800763 7.07417 0.51841 7.58417 1.14924 7.69833C4.26881 8.25493 7.45216 8.36046 10.6017 8.01167C10.6616 8.00486 10.7222 8.01156 10.7791 8.03129C10.836 8.05102 10.8877 8.08326 10.9305 8.12564C10.9733 8.16803 11.006 8.21947 11.0263 8.27618C11.0465 8.3329 11.0538 8.39343 11.0476 8.45333L10.9884 9.03417L10.1401 17.29C10.1059 17.6317 10.1009 17.9833 10.0359 18.3208C9.93424 18.8517 9.57508 19.1775 9.05091 19.2967C8.56869 19.4061 8.08091 19.4631 7.58758 19.4675C7.04091 19.4708 6.49591 19.4467 5.94924 19.4492C5.36674 19.4525 4.65258 19.3992 4.20341 18.9658C3.80758 18.5842 3.75341 17.9875 3.69924 17.4717L3.09008 11.6275L2.82174 9.04917C2.79091 8.75667 2.58341 8.47 2.25674 8.48417C1.97674 8.49667 1.65841 8.73417 1.69174 9.05L1.88174 10.8708L2.67258 18.4642C2.79508 19.5842 3.65091 20.1875 4.71091 20.3575C5.32924 20.4575 5.96341 20.4775 6.59174 20.4875C7.39674 20.5008 8.21008 20.5317 9.00174 20.3858C10.1751 20.1708 11.0559 19.3875 11.1817 18.1717L12.0351 9.8425L12.2142 8.10333C12.2225 8.0169 12.2587 7.93552 12.3174 7.87148C12.376 7.80744 12.4539 7.76421 12.5392 7.74833C12.8742 7.68333 13.1951 7.57167 13.4342 7.31667C13.8134 6.91 13.8892 6.38083 13.7551 5.84583ZM12.5234 6.48917C12.4026 6.60333 12.2209 6.65667 12.0417 6.68333C10.0284 6.9825 7.98674 7.13333 5.95174 7.06667C4.49508 7.01667 3.05424 6.855 1.61258 6.65167C1.47091 6.63167 1.31841 6.60583 1.22091 6.50167C1.03758 6.305 1.12841 5.91 1.17591 5.6725C1.21924 5.45583 1.30258 5.165 1.56174 5.13417C1.96508 5.08667 2.43341 5.2575 2.83341 5.3175C3.31397 5.39083 3.79647 5.44972 4.28091 5.49417C6.34758 5.6825 8.44924 5.6525 10.5076 5.3775C10.8826 5.3275 11.2562 5.26917 11.6284 5.2025C11.9609 5.1425 12.3284 5.03083 12.5284 5.37417C12.6667 5.60833 12.6851 5.92167 12.6634 6.18583C12.6572 6.30128 12.6067 6.4099 12.5226 6.48917H12.5234ZM7.39091 9.73917C6.67258 10.0475 5.85758 10.3958 4.80008 10.3958C4.35817 10.3936 3.9185 10.3328 3.49258 10.215L4.22341 17.7183C4.27758 18.3683 4.82091 18.8683 5.47341 18.8683C5.47341 18.8683 6.50924 18.9225 6.85508 18.9225C7.22758 18.9225 8.34341 18.8683 8.34341 18.8683C8.99591 18.8683 9.53841 18.3683 9.59258 17.7183L10.3759 9.42667C10.0225 9.29893 9.65002 9.23187 9.27424 9.22833C8.58591 9.22833 8.03174 9.465 7.39091 9.73917Z" fill="#EFEFEF"/>
</svg>
