<svg width="37" height="38" viewBox="0 0 37 38" fill="none" xmlns="http://www.w3.org/2000/svg">
<path d="M12.025 3.58334H24.975C29.9083 3.58334 33.9166 7.59168 33.9166 12.525V25.475C33.9166 27.8465 32.9746 30.1208 31.2977 31.7977C29.6208 33.4746 27.3465 34.4167 24.975 34.4167H12.025C7.09165 34.4167 3.08331 30.4083 3.08331 25.475V12.525C3.08331 10.1535 4.02538 7.87919 5.70227 6.2023C7.37915 4.52541 9.6535 3.58334 12.025 3.58334ZM11.7166 6.66668C10.2447 6.66668 8.83303 7.25141 7.7922 8.29223C6.75138 9.33306 6.16665 10.7447 6.16665 12.2167V25.7833C6.16665 28.8513 8.64873 31.3333 11.7166 31.3333H25.2833C26.7553 31.3333 28.1669 30.7486 29.2078 29.7078C30.2486 28.667 30.8333 27.2553 30.8333 25.7833V12.2167C30.8333 9.14876 28.3512 6.66668 25.2833 6.66668H11.7166ZM26.5937 8.97918C27.1048 8.97918 27.595 9.18221 27.9564 9.54361C28.3178 9.905 28.5208 10.3952 28.5208 10.9063C28.5208 11.4174 28.3178 11.9075 27.9564 12.2689C27.595 12.6303 27.1048 12.8333 26.5937 12.8333C26.0826 12.8333 25.5925 12.6303 25.2311 12.2689C24.8697 11.9075 24.6666 11.4174 24.6666 10.9063C24.6666 10.3952 24.8697 9.905 25.2311 9.54361C25.5925 9.18221 26.0826 8.97918 26.5937 8.97918ZM18.5 11.2917C20.5444 11.2917 22.505 12.1038 23.9506 13.5494C25.3962 14.995 26.2083 16.9556 26.2083 19C26.2083 21.0444 25.3962 23.005 23.9506 24.4506C22.505 25.8962 20.5444 26.7083 18.5 26.7083C16.4556 26.7083 14.495 25.8962 13.0494 24.4506C11.6038 23.005 10.7916 21.0444 10.7916 19C10.7916 16.9556 11.6038 14.995 13.0494 13.5494C14.495 12.1038 16.4556 11.2917 18.5 11.2917ZM18.5 14.375C17.2734 14.375 16.097 14.8623 15.2296 15.7296C14.3623 16.597 13.875 17.7734 13.875 19C13.875 20.2266 14.3623 21.403 15.2296 22.2704C16.097 23.1377 17.2734 23.625 18.5 23.625C19.7266 23.625 20.903 23.1377 21.7703 22.2704C22.6377 21.403 23.125 20.2266 23.125 19C23.125 17.7734 22.6377 16.597 21.7703 15.7296C20.903 14.8623 19.7266 14.375 18.5 14.375Z" fill="#06080A"/>
</svg>
