<svg width="38" height="38" viewBox="0 0 38 38" fill="none" xmlns="http://www.w3.org/2000/svg">
<path d="M15.6613 13.1031C15.7056 13.0788 15.7553 13.0661 15.8058 13.0661C15.8563 13.0661 15.906 13.0788 15.9503 13.1031L25.5241 18.6531C25.5677 18.6786 25.604 18.715 25.6292 18.7588C25.6543 18.8027 25.6676 18.8523 25.6676 18.9029C25.6676 18.9534 25.6543 19.0031 25.6292 19.0469C25.604 19.0907 25.5677 19.1272 25.5241 19.1526L15.9503 24.7026C15.9064 24.7283 15.8565 24.7418 15.8056 24.742C15.7547 24.7422 15.7047 24.7289 15.6606 24.7036C15.6165 24.6783 15.5799 24.6417 15.5544 24.5977C15.529 24.5537 15.5155 24.5037 15.5156 24.4529V13.3529C15.5156 13.2511 15.5711 13.154 15.6613 13.1031Z" fill="#06080A"/>
<path fill-rule="evenodd" clip-rule="evenodd" d="M27.1312 5.28687C29.9062 5.40481 32.635 5.61062 33.8375 5.96212C34.6214 6.18874 35.336 6.63274 35.9118 7.24787C36.4853 7.86299 36.9016 8.62843 37.112 9.46787C38.333 14.7404 38.0509 23.0654 37.1351 28.5229C36.9279 29.3519 36.5151 30.1154 35.9349 30.7429C35.3711 31.3494 34.6547 31.7935 33.8606 32.0286C31.155 32.8172 20.795 32.8634 19.5462 32.8681L18.3021 32.8634C16.4131 32.8483 14.5244 32.8074 12.6365 32.7409L11.9196 32.7131L11.2351 32.6831C8.64512 32.5628 6.14762 32.3593 5.01449 32.0309C4.22041 31.7958 3.50403 31.3518 2.94018 30.7452C2.36002 30.1177 1.94725 29.3542 1.73999 28.5252C0.509743 23.2758 0.847368 14.9508 1.71687 9.49331C1.92413 8.66425 2.33689 7.90076 2.91706 7.27331C3.49055 6.65818 4.20743 6.21418 4.99137 5.98756C7.51199 5.25449 16.6464 5.14349 18.9126 5.12499L19.4746 5.12268L20.4805 5.12731C21.8217 5.13887 24.273 5.17124 26.7474 5.27068L27.1405 5.28687H27.1312ZM34.2306 8.82499C34.5266 9.14181 34.7532 9.54881 34.8735 10.0136C35.9881 14.8467 35.7546 22.7324 34.8804 28.028C34.7579 28.4674 34.5359 28.8536 34.2561 29.1588C33.9764 29.4609 33.6211 29.6828 33.227 29.8017H33.2224C32.7969 29.9266 31.8603 30.0653 30.4705 30.1832C29.1524 30.2942 27.603 30.3706 26.0767 30.4284C23.0474 30.5371 20.1799 30.5486 19.5555 30.5509L18.3299 30.544H18.3206C16.4547 30.5299 14.5891 30.4898 12.7244 30.4237L12.0214 30.3983L11.3438 30.3682C10.065 30.3081 8.84399 30.2295 7.80337 30.1301C6.72112 30.0237 6.00424 29.9057 5.66199 29.8063H5.65506C5.26151 29.6864 4.90707 29.4637 4.6283 29.1611C4.31784 28.8229 4.09615 28.4129 3.98312 27.9679C2.86618 23.181 3.14599 15.2954 3.97849 9.95349C4.10337 9.51643 4.32537 9.13256 4.60287 8.83193C4.88191 8.53021 5.23632 8.3083 5.62962 8.18906H5.63424C6.02274 8.07343 6.86218 7.94393 8.10862 7.83062C9.30187 7.72193 10.6986 7.63868 12.1324 7.58087C14.3899 7.49054 16.6487 7.43658 18.908 7.41899H19.4584L20.4481 7.42362H20.4504C21.7847 7.43287 24.1967 7.46524 26.6248 7.56237L27.0179 7.57856C28.3823 7.63637 29.7236 7.71731 30.8336 7.82137C32.0129 7.93237 32.7992 8.05724 33.1692 8.16362C33.5627 8.28352 33.9195 8.50624 34.1982 8.80881L34.2306 8.82499Z" fill="#06080A"/>
</svg>
